<?xml version="1.0" standalone="no"?>
<!DOCTYPE svg PUBLIC "-//W3C//DTD SVG 20010904//EN"
 "http://www.w3.org/TR/2001/REC-SVG-20010904/DTD/svg10.dtd">
<svg version="1.0" xmlns="http://www.w3.org/2000/svg"
 width="700.000000pt" height="700.000000pt" viewBox="0 0 700.000000 700.000000"
 preserveAspectRatio="xMidYMid meet">
<metadata>
Created by potrace 1.11, written by Peter Selinger 2001-2013
</metadata>
<g transform="translate(0.000000,700.000000) scale(0.100000,-0.100000)"
fill="#000000" stroke="none">
<path d="M2255 6519 c-271 -44 -529 -249 -694 -552 -87 -159 -154 -369 -176
-553 -4 -33 -9 -68 -11 -79 -6 -28 -6 -304 0 -335 2 -14 8 -52 12 -85 4 -33 8
-62 9 -65 1 -3 5 -23 9 -45 67 -346 269 -678 513 -843 208 -141 405 -179 663
-127 52 10 191 77 266 127 72 47 221 202 280 289 58 85 131 230 168 334 133
375 131 812 -5 1185 -40 109 -123 266 -181 345 -88 118 -208 231 -311 293 -69
42 -175 85 -247 102 -67 15 -226 20 -295 9z"/>
<path d="M4354 6505 c-209 -53 -381 -175 -536 -380 -149 -197 -259 -494 -285
-767 -13 -134 -4 -450 13 -479 2 -4 6 -24 10 -45 21 -140 87 -329 165 -469
193 -349 490 -552 809 -553 75 0 109 3 198 22 13 3 49 15 80 26 373 139 657
562 726 1082 16 117 14 386 -4 488 -6 36 -14 81 -17 100 -10 62 -53 202 -92
297 -139 337 -372 574 -656 666 -78 25 -103 29 -215 32 -83 2 -124 -2 -196
-20z"/>
<path d="M728 4505 c-2 -2 -19 -6 -38 -9 -222 -35 -430 -205 -553 -451 -97
-192 -137 -384 -132 -620 3 -157 8 -196 36 -310 37 -148 75 -239 154 -360 152
-236 384 -369 623 -360 115 5 194 25 274 70 24 14 56 32 71 40 55 31 148 121
206 200 41 55 113 175 105 175 -2 0 2 10 10 23 18 27 72 190 81 243 31 179 39
369 21 494 -69 457 -331 792 -671 855 -41 8 -181 15 -187 10z"/>
<path d="M6090 4498 c-124 -32 -177 -55 -260 -110 -213 -143 -375 -436 -416
-748 -10 -81 -11 -297 -2 -360 5 -30 11 -70 13 -89 28 -190 145 -432 273 -567
145 -153 308 -227 502 -228 90 -1 118 4 194 28 242 79 438 296 541 601 9 28
19 59 21 70 2 11 8 43 14 70 19 94 22 120 25 255 3 156 -10 277 -41 389 -101
359 -332 618 -609 681 -64 15 -210 19 -255 8z"/>
<path d="M3388 3635 c-2 -1 -58 -5 -125 -9 -67 -3 -128 -8 -135 -11 -7 -2 -33
-6 -58 -9 -25 -3 -57 -8 -72 -11 -16 -3 -38 -7 -50 -9 -13 -2 -43 -9 -68 -16
-25 -7 -55 -14 -67 -16 -105 -19 -377 -134 -518 -219 -275 -165 -524 -415
-657 -658 -24 -44 -70 -116 -104 -160 -136 -184 -238 -394 -303 -627 -49 -178
-69 -411 -48 -575 33 -255 123 -454 275 -604 89 -87 112 -104 207 -152 244
-122 477 -77 893 174 84 51 168 101 187 112 19 11 70 41 113 67 139 82 305
157 363 164 96 11 319 10 414 -2 133 -17 222 -63 637 -330 281 -180 406 -239
561 -264 150 -24 290 6 430 94 408 254 550 852 347 1459 -52 154 -122 301
-197 412 -33 50 -77 122 -98 160 -248 459 -673 788 -1220 944 -38 10 -95 24
-125 30 -30 6 -66 14 -80 16 -14 3 -47 8 -75 11 -27 3 -55 7 -62 9 -24 8 -358
26 -365 20z"/>
</g>
</svg>
