<svg xmlns="http://www.w3.org/2000/svg" viewBox="0 0 115.14 92.98"><title>Asset 12</title><g id="Layer_2" data-name="Layer 2"><g id="Images_fonts_colours" data-name="Images / fonts / colours"><path d="M33.81.37c4.44-.93,9.45-.15,12.81,3.08,4.33,4,5.56,10.31,5.6,16,.06,4.82-.13,10.22-3.37,14.11-1.92,2.47-5.44,2.1-8.12,1.37A33.79,33.79,0,0,1,26.52,23c-2.24-3.48-3.95-7.76-2.78-11.91A14.1,14.1,0,0,1,33.81.37Z"/><path d="M73.39.59A16.54,16.54,0,0,1,81.54.43c6,1.53,10.12,7.68,10.24,13.74-.42,6.55-5,11.79-9.65,16-3.79,3.09-8.48,6.26-13.64,5.06-2.7-1.22-4-4.14-4.8-6.85A39.75,39.75,0,0,1,63.57,13a21.27,21.27,0,0,1,3.21-7.73A15.09,15.09,0,0,1,73.39.59Z"/><path d="M7.1,32.93a12.66,12.66,0,0,1,13.11,2.3c3.95,3.88,7.59,8.49,8.82,14,.43,2.07.58,4.63-1.11,6.23-2.5,2.61-6.45,2.54-9.8,2.38C13.2,57.41,8.1,56.14,4.19,53A12,12,0,0,1,7.1,32.93Z"/><path d="M98,33.13a12.39,12.39,0,0,1,9.76-.23c6.55,2.19,9.33,10.94,5.89,16.78-2.62,5-8.55,6.7-13.67,7.83-4,.56-8.59,1.05-12.07-1.4-3.15-2.34-2.11-6.76-.87-9.85C89.49,41.1,93,36,98,33.13Z"/><path d="M55.2,42.44c5.89-1.32,11,2.73,15.63,5.69,6.23,4.54,12,10,15.89,16.71,2.64,5.19,4,11.59,1.5,17.1-3,8.27-13.19,13.3-21.46,10-3.17-1.13-5.36-3.8-8.09-5.62a2.06,2.06,0,0,0-2.57.27c-3,2.25-5.77,5.08-9.54,5.89a17.32,17.32,0,0,1-19.39-9.89c-2.58-5.38-1.7-11.77.82-17s6.68-9.21,10.89-13A45.24,45.24,0,0,1,55.2,42.44Z"/></g></g></svg>