<svg xmlns="http://www.w3.org/2000/svg" viewBox="0 0 140.9 130.59"><defs><style>.cls-1{fill:#eb7859;}.cls-2{fill:#fff;}</style></defs><title>Asset 4</title><g id="Layer_2" data-name="Layer 2"><g id="High_Fidelity" data-name="High Fidelity"><path class="cls-1" d="M65.79.2a41.58,41.58,0,0,1,23,4.25A41.38,41.38,0,0,1,111.32,36,41.64,41.64,0,1,1,65.79.2M58.15,19a7,7,0,0,0-5,5.29c-.57,2,.27,4.17,1.38,5.88a16.73,16.73,0,0,0,7,5.93c1.32.36,3.06.54,4-.68,1.6-1.92,1.7-4.59,1.67-7,0-2.82-.63-5.92-2.77-7.92A7.07,7.07,0,0,0,58.15,19m19.57.11a7.4,7.4,0,0,0-3.27,2.32,10.28,10.28,0,0,0-1.59,3.82,19.83,19.83,0,0,0,.06,7.6,5,5,0,0,0,2.37,3.39c2.55.59,4.87-1,6.75-2.51,2.3-2.07,4.57-4.66,4.77-7.9A7.19,7.19,0,0,0,81.75,19a8.21,8.21,0,0,0-4,.08m-32.78,16a5.81,5.81,0,0,0-3.39,4.2A5.88,5.88,0,0,0,43.49,45a12.72,12.72,0,0,0,6.89,2.41c1.66.08,3.62.12,4.85-1.18a3.23,3.23,0,0,0,.55-3.08,14.57,14.57,0,0,0-4.36-6.93,6.26,6.26,0,0,0-6.48-1.14m45,.1a14.36,14.36,0,0,0-5.42,6.5c-.62,1.52-1.13,3.71.43,4.87,1.72,1.2,4,1,6,.69,2.53-.56,5.46-1.4,6.76-3.88,1.7-2.88.32-7.21-2.92-8.29a6.11,6.11,0,0,0-4.82.11M68.71,39.8a22.2,22.2,0,0,0-8.07,5.05,22.59,22.59,0,0,0-5.37,6.43,9.81,9.81,0,0,0-.4,8.41,8.57,8.57,0,0,0,9.6,4.87c1.86-.4,3.24-1.8,4.71-2.92a1,1,0,0,1,1.27-.13c1.35.9,2.44,2.22,4,2.77a8.47,8.47,0,0,0,10.61-5c1.23-2.73.55-5.89-.75-8.46a27.4,27.4,0,0,0-7.87-8.25C74.13,41.14,71.62,39.14,68.71,39.8Z"/><path class="cls-2" d="M58.15,19a7.07,7.07,0,0,1,6.33,1.52c2.14,2,2.75,5.1,2.77,7.92,0,2.39-.07,5.06-1.67,7-1,1.22-2.69,1-4,.68a16.73,16.73,0,0,1-7-5.93c-1.11-1.71-1.95-3.83-1.38-5.88A7,7,0,0,1,58.15,19Z"/><path class="cls-2" d="M77.72,19.1a8.21,8.21,0,0,1,4-.08,7.19,7.19,0,0,1,5.06,6.8c-.2,3.24-2.47,5.83-4.77,7.9-1.88,1.53-4.2,3.1-6.75,2.51a5,5,0,0,1-2.37-3.39,19.83,19.83,0,0,1-.06-7.6,10.28,10.28,0,0,1,1.59-3.82A7.4,7.4,0,0,1,77.72,19.1Z"/><path class="cls-2" d="M44.94,35.09a6.26,6.26,0,0,1,6.48,1.14,14.57,14.57,0,0,1,4.36,6.93,3.23,3.23,0,0,1-.55,3.08C54,47.54,52,47.5,50.38,47.42A12.72,12.72,0,0,1,43.49,45a5.88,5.88,0,0,1-1.94-5.72A5.81,5.81,0,0,1,44.94,35.09Z"/><path class="cls-2" d="M89.89,35.19a6.11,6.11,0,0,1,4.82-.11c3.24,1.08,4.62,5.41,2.92,8.29-1.3,2.48-4.23,3.32-6.76,3.88-2,.27-4.25.51-6-.69-1.56-1.16-1.05-3.35-.43-4.87A14.36,14.36,0,0,1,89.89,35.19Z"/><path class="cls-2" d="M68.71,39.8c2.91-.66,5.42,1.34,7.73,2.8a27.4,27.4,0,0,1,7.87,8.25c1.3,2.57,2,5.73.75,8.46a8.47,8.47,0,0,1-10.61,5c-1.56-.55-2.65-1.87-4-2.77a1,1,0,0,0-1.27.13c-1.47,1.12-2.85,2.52-4.71,2.92a8.57,8.57,0,0,1-9.6-4.87,9.81,9.81,0,0,1,.4-8.41,22.59,22.59,0,0,1,5.37-6.43A22.2,22.2,0,0,1,68.71,39.8Z"/><path class="cls-2" d="M57.18,98.36a2.09,2.09,0,0,1,2.64,2.37,2.15,2.15,0,0,1-3.23,1.32A2.09,2.09,0,0,1,57.18,98.36Z"/><path class="cls-2" d="M110.73,100.12a3.79,3.79,0,0,1,3.27,0c.55.36.52,1.09.53,1.67,0,4.25,0,8.5,0,12.75a4.78,4.78,0,0,1-3.51-.34,9.7,9.7,0,0,1-.26-1.85C110.74,108.27,110.77,104.2,110.73,100.12Z"/><path class="cls-2" d="M117.16,100a4.78,4.78,0,0,1,3.49.24c.62,2.35.13,4.82.33,7.22,1.33-1.34,2.52-2.82,3.91-4.1,1.24-.24,2.92.9,2.46,2.3s-2.14,2.06-3,3.25c0,.37.38.58.59.84,1,.94,1.92,1.91,2.89,2.86-.18.86-.5,1.87-1.49,2.05-1.41.42-2.57-.72-3.31-1.76-.67-.81-1.28-1.67-2-2.42,0,1.35,0,2.71,0,4.06-1.28.2-3.1.58-3.78-.89C117.17,109.06,117.16,104.51,117.16,100Z"/><path class="cls-2" d="M2.55,101.22a11.37,11.37,0,0,1,7.33-.56,6.22,6.22,0,0,1,4.82,4.64,8.45,8.45,0,0,1-1.45,7.47c-1.73,1.87-4.46,2.35-6.9,2.22a8.07,8.07,0,0,1-3.5-.86c-.85-.73-.6-2-.62-2.95q0-3.23,0-6.45c.09-1.16-.3-2.48.32-3.51m3.58,2.34c0,2.77,0,5.55,0,8.33,1.66.34,3.87,0,4.47-1.87s.65-4.27-.87-5.7C8.76,103.4,7.36,103.54,6.13,103.56Z"/><path class="cls-2" d="M78.39,101.37a3.31,3.31,0,0,1,3.15-.53c1.11.4,1,1.78,1.2,2.72.48,2.57.6,5.22,1.33,7.74.46-2.45,1.12-4.86,1.65-7.29a4.81,4.81,0,0,1,3.76.25c.93,2.25,1.24,4.7,2,7,.63-3.37.9-6.79,1.26-10.19A3.38,3.38,0,0,1,96,101c.68.38.52,1.28.5,1.93a58.87,58.87,0,0,1-2,10.46c-.28,1.08-1.6,1.1-2.5,1.25s-2.46,0-3-1c-.58-1.59-.91-3.25-1.42-4.86-.49,1.77-.83,3.58-1.34,5.34a5.41,5.41,0,0,1-5.18-.18,16.81,16.81,0,0,1-.76-2.2A85,85,0,0,1,78.39,101.37Z"/><path class="cls-2" d="M20.56,103.4A6.26,6.26,0,0,1,27,105.19a6.57,6.57,0,0,1-.4,8.31c-2.54,2.24-7.09,2-9.09-.86a6.85,6.85,0,0,1-.35-6.54,5.27,5.27,0,0,1,3.41-2.7m.9,3c-1.37,1-1.34,3.05-.79,4.48a1.86,1.86,0,0,0,3.27.29,4.58,4.58,0,0,0,.08-4A1.89,1.89,0,0,0,21.46,106.38Z"/><path class="cls-2" d="M31.93,104.18a7.51,7.51,0,0,1,6.86-.18c.74.39,1.69.93,1.71,1.89,0,2.84,0,5.67,0,8.51A4.14,4.14,0,0,1,38,118.18a8.83,8.83,0,0,1-5.74.3,2.38,2.38,0,0,1-1.6-1.07,2.63,2.63,0,0,1,.35-2.48c1.58.76,3.5,1.27,5.18.5.69-.27.82-1.08.92-1.72a6.75,6.75,0,0,1-4.48,0c-2.1-.71-3.06-3.11-2.93-5.18a4.9,4.9,0,0,1,2.24-4.36M33.87,107a3.68,3.68,0,0,0,.05,3.62,3.11,3.11,0,0,0,3,.11c0-1.38,0-2.77,0-4.15A2.56,2.56,0,0,0,33.87,107Z"/><path class="cls-2" d="M45,104.06a7.62,7.62,0,0,1,6.7,0c.74.38,1.59.9,1.67,1.83.07,2.75,0,5.51,0,8.27a4.14,4.14,0,0,1-2.09,3.82,8.4,8.4,0,0,1-6.61.41,2.27,2.27,0,0,1-1.48-1.88c.24-.46.19-1.17.73-1.42,1.61.57,3.44,1.19,5.11.39.73-.27.77-1.12.91-1.77a6,6,0,0,1-5.47-.47,5.21,5.21,0,0,1-1.93-4.63,4.92,4.92,0,0,1,2.43-4.5m1.55,3.29a3.29,3.29,0,0,0,.2,3.09,2.59,2.59,0,0,0,3,.36c0-1.42.08-2.85,0-4.27C48.68,106,47,106.17,46.54,107.35Z"/><path class="cls-2" d="M55.88,103.59a4.31,4.31,0,0,1,3.45.1,4.81,4.81,0,0,1,.31,1.63c0,3.07,0,6.13,0,9.19a4.61,4.61,0,0,1-3.48-.32,6.4,6.4,0,0,1-.27-1.84C55.88,109.42,55.89,106.5,55.88,103.59Z"/><path class="cls-2" d="M63.31,104.73c2.58-2.39,7.64-1.86,9,1.6.39,1.07.71,2.89-.76,3.23-2,.46-4.13.59-6.17,1a2.37,2.37,0,0,0,1.42,1.21c1.58.56,3.25,0,4.77-.48.29.6.81,1.25.53,2-.31,1.13-1.6,1.45-2.6,1.62-2.48.46-5.42-.17-6.89-2.37a6.5,6.5,0,0,1,.7-7.75m1.78,3.43c1.36-.18,2.72-.38,4.08-.62-.37-.68-.88-1.49-1.78-1.36A2.13,2.13,0,0,0,65.09,108.16Z"/><path class="cls-2" d="M98.69,104.68c.44-1.05,1.7-1.24,2.69-1.4,2-.2,4.27-.2,5.84,1.21a3.75,3.75,0,0,1,1.12,3.17c-.06,1.79.1,3.59-.07,5.37a4,4,0,0,1-3,1.75,8.67,8.67,0,0,1-5.89-.67,3.33,3.33,0,0,1,0-5.55c1.65-.8,3.54-.66,5.32-1-.1-.32-.19-.64-.27-1-1.6-.83-3.47-.42-5.09.13-.81-.27-.83-1.39-.7-2.09m3,5.85c0,.26,0,.8-.07,1.07a3.93,3.93,0,0,0,3.17.27c0-.62,0-1.23,0-1.85A8.68,8.68,0,0,0,101.64,110.53Z"/><path class="cls-2" d="M129.47,105.74c.49-1.68,2.35-2.39,3.95-2.51s3.19-.06,4.38,1a2.25,2.25,0,0,1,0,2.61c-1.57-.34-3.34-1.11-4.86-.19,0,.15,0,.45.05.6,1.52.69,3.34.66,4.68,1.75a3.3,3.3,0,0,1,.39,4.53c-1.16,1.28-3,1.53-4.65,1.51-1.3-.1-2.8-.25-3.71-1.31a2,2,0,0,1,.38-2.59c1.53.71,3.41,1.35,5,.48-.07-.38,0-.89-.51-1-1.45-.47-3.13-.5-4.33-1.57C129.26,108.28,129.24,106.86,129.47,105.74Z"/><path class="cls-2" d="M0,123.41l.87-.09c0,1,0,1.94,0,2.92,1.14.06,2.29.06,3.43,0,0-1,0-2,0-3l.8.14c.09,2.23,0,4.47,0,6.7H4.32c0-1.08,0-2.15,0-3.23-1.15,0-2.29,0-3.43,0a35.15,35.15,0,0,1-.08,3.7c0-.15-.11-.44-.14-.58L0,130.1C0,127.87,0,125.64,0,123.41Z"/><path class="cls-2" d="M8.74,123.38c1.34,0,2.68,0,4,0,0,.14,0,.43,0,.58l-3.15,0c0,.77,0,1.54,0,2.32.84,0,1.68,0,2.52.07l.35.48c-1,.08-1.91.07-2.86.08v2.62c1,0,2.06,0,3.08.05,0,.14.11.42.14.56-1.36,0-2.72,0-4.08,0C8.76,127.84,8.78,125.61,8.74,123.38Z"/><path class="cls-2" d="M16,123.4l.85-.08c0,2.06,0,4.11,0,6.17,1,0,2,0,3,.07l.16.5c-1.33.06-2.67.05-4,0C16.05,127.85,16.07,125.62,16,123.4Z"/><path class="cls-2" d="M22.78,123.44c1.23-.09,2.62-.28,3.71.44a1.87,1.87,0,0,1,0,3,5.46,5.46,0,0,1-2.84.66c0,.86,0,1.73,0,2.59H22.8c0-2.22,0-4.44,0-6.66m.86.52c0,1,0,2,0,2.92.79,0,1.73.14,2.37-.46s.27-1.32.23-2A3.8,3.8,0,0,0,23.64,124Z"/><path class="cls-2" d="M34.85,123.35l.82,0c.18,1.65-.08,3.33.13,5a1.61,1.61,0,0,0,3.08.12,36.27,36.27,0,0,0,.13-5.11h.82c-.09,1.73.22,3.52-.19,5.22-.67,2.11-4.27,2-4.67-.24C34.75,126.68,34.93,125,34.85,123.35Z"/><path class="cls-2" d="M43.05,124.49c1-1.39,2.86-1.32,4.29-.78l-.39.61a2.7,2.7,0,0,0-3,.13c0,.26,0,.78,0,1,1,.74,2.29.93,3.16,1.81a1.94,1.94,0,0,1-.33,2.36,5,5,0,0,1-4.13,0l.49-.61a3.91,3.91,0,0,0,2.36.47,1.13,1.13,0,0,0,.78-1.84c-.79-.78-2-.85-2.84-1.6A2.61,2.61,0,0,1,43.05,124.49Z"/><path class="cls-2" d="M55.39,123.35h.87v2.93c1.15,0,2.3,0,3.45,0,0-1,0-1.94,0-2.91l.87,0c0,2.21,0,4.43,0,6.64l-.87.1c0-1.08,0-2.16,0-3.24-1.14,0-2.29,0-3.43,0,0,1.07,0,2.14,0,3.22H55.4Q55.43,126.73,55.39,123.35Z"/><path class="cls-2" d="M64.16,123.37c1.35,0,2.71,0,4.06,0l-.21.51c-1,.09-2,0-3,0,0,.78,0,1.55,0,2.33a7.91,7.91,0,0,1,3,.3c-.9.54-2,.24-3,.32v2.61a24,24,0,0,1,3.06.1c.06.11.17.34.22.45-1.38.09-2.76.07-4.14.05C64.18,127.85,64.17,125.61,64.16,123.37Z"/><path class="cls-2" d="M71.3,123.4l.88-.08c0,2.05,0,4.11,0,6.16,1.14.1,2.36-.2,3.43.32-1.34.6-2.88.21-4.3.25C71.34,127.84,71.33,125.62,71.3,123.4Z"/><path class="cls-2" d="M78.17,123.43a6,6,0,0,1,3.61.4,1.83,1.83,0,0,1,.38,2.69c-.76,1-2.12.89-3.23,1a23.69,23.69,0,0,0,.15,2.53l-.91.05c0-2.22,0-4.45,0-6.68M79,124c0,1,0,2,0,2.94.79-.07,1.77.15,2.36-.53a1.59,1.59,0,0,0,0-2C80.8,123.78,79.84,124,79,124Z"/><path class="cls-2" d="M92.18,123.39l.94,0c.83,2,1.65,4.09,2.5,6.12.24.48-.49.46-.77.52-.16-.64-.38-1.27-.58-1.9-1.1-.05-2.19,0-3.29,0-.22.66-.47,1.32-.71,2l-.7-.28c.81-2.15,1.77-4.24,2.61-6.38m-1,4a20.27,20.27,0,0,0,2.7,0,28.22,28.22,0,0,0-1.39-3.19A28.65,28.65,0,0,1,91.23,127.42Z"/><path class="cls-2" d="M98.58,123.37h1.23c1,1.9,2,3.78,3,5.63.06-1.88,0-3.76,0-5.64h.82c0,2.23,0,4.46,0,6.69h-1.22c-.92-1.9-2-3.73-3-5.58,0,1.88,0,3.76,0,5.64l-.84-.09Q98.63,126.7,98.58,123.37Z"/><path class="cls-2" d="M107.3,123.35h.85c0,2.25,0,4.51,0,6.77l-.86,0C107.3,127.85,107.29,125.6,107.3,123.35Z"/><path class="cls-2" d="M111.78,123.44q.63-.07,1.26-.12c.59,1.41,1.23,2.8,1.82,4.21a23.91,23.91,0,0,0,2-4.15c.42,0,.85,0,1.27,0q0,3.38,0,6.76h-.83c0-1.88,0-3.76-.06-5.63-.63,1.35-1.25,2.7-1.81,4.08h-.9c-.6-1.37-1.22-2.73-1.83-4.08-.09,1.88,0,3.77-.06,5.65l-.82-.06C111.8,127.85,111.82,125.64,111.78,123.44Z"/><path class="cls-2" d="M120.91,129.83c.79-2.2,1.79-4.32,2.64-6.49l.94.06c.85,2.12,1.72,4.23,2.59,6.35l-.83.28c-.2-.63-.41-1.26-.58-1.89a26.46,26.46,0,0,0-3.33-.09l-.7,2-.73-.18m1.77-2.42c.85,0,1.72.06,2.58.07-.41-1.08-.83-2.16-1.21-3.25A15.42,15.42,0,0,0,122.68,127.41Z"/><path class="cls-2" d="M129.92,123.34l.87,0c0,2,0,4.1,0,6.15a19,19,0,0,1,3,.06l.22.46c-1.36.09-2.73.06-4.09.06C129.93,127.85,129.94,125.59,129.92,123.34Z"/><path class="cls-2" d="M137.6,123.54a4.11,4.11,0,0,1,3.3.34c-1.12.7-2.63-.57-3.63.59l0,1c.87.71,2,.93,2.93,1.6a1.65,1.65,0,0,1-.42,2.75,4.71,4.71,0,0,1-3.59-.08c.1-.25.2-.5.31-.75,1,.63,2.82,1.06,3.37-.29.26-2.08-3-1.49-3.38-3.25A1.56,1.56,0,0,1,137.6,123.54Z"/></g></g></svg>