<svg xmlns="http://www.w3.org/2000/svg" viewBox="0 0 50.75 40.98"><defs><style>.cls-1{fill:#fff;}</style></defs><title>Asset 5</title><g id="Layer_2" data-name="Layer 2"><g id="High_Fidelity" data-name="High Fidelity"><path class="cls-1" d="M14.9.16a6.31,6.31,0,0,1,5.65,1.36C22.46,3.3,23,6.07,23,8.58c0,2.12-.05,4.5-1.48,6.21-.85,1.09-2.4.93-3.58.61a14.92,14.92,0,0,1-6.26-5.28,6.63,6.63,0,0,1-1.23-5.25A6.24,6.24,0,0,1,14.9.16Z"/><path class="cls-1" d="M32.34.26a7.31,7.31,0,0,1,3.6-.07,6.4,6.4,0,0,1,4.51,6.06c-.18,2.88-2.2,5.19-4.25,7-1.67,1.36-3.74,2.76-6,2.23a4.36,4.36,0,0,1-2.11-3A17.52,17.52,0,0,1,28,5.73a9.53,9.53,0,0,1,1.41-3.41A6.68,6.68,0,0,1,32.34.26Z"/><path class="cls-1" d="M3.13,14.51a5.6,5.6,0,0,1,5.78,1,12.9,12.9,0,0,1,3.88,6.18,2.89,2.89,0,0,1-.48,2.74C11.2,25.6,9.46,25.57,8,25.5a11.46,11.46,0,0,1-6.14-2.14,5.26,5.26,0,0,1-1.73-5.1A5.2,5.2,0,0,1,3.13,14.51Z"/><path class="cls-1" d="M43.19,14.6a5.49,5.49,0,0,1,4.3-.1,5.24,5.24,0,0,1,2.6,7.39c-1.15,2.21-3.77,3-6,3.46-1.76.24-3.79.46-5.32-.62s-.94-3-.39-4.34A12.9,12.9,0,0,1,43.19,14.6Z"/><path class="cls-1" d="M24.33,18.7c2.59-.58,4.84,1.21,6.89,2.51a24.36,24.36,0,0,1,7,7.37c1.16,2.28,1.76,5.11.66,7.53a7.54,7.54,0,0,1-9.46,4.43c-1.39-.5-2.36-1.68-3.56-2.48a.9.9,0,0,0-1.13.12c-1.32,1-2.55,2.24-4.21,2.59A7.64,7.64,0,0,1,12,36.41a8.79,8.79,0,0,1,.37-7.49,20,20,0,0,1,4.8-5.72A19.87,19.87,0,0,1,24.33,18.7Z"/></g></g></svg>