<svg xmlns="http://www.w3.org/2000/svg" xmlns:xlink="http://www.w3.org/1999/xlink" viewBox="0 0 1385 548"><defs><style>.cls-1{fill:#dceaff;}.cls-2{opacity:0.39;}.cls-3{clip-path:url(#clip-path);}.cls-4{fill:none;}.cls-5{fill:#b2cefe;}</style><clipPath id="clip-path"><rect class="cls-1" x="0.51" y="0.18" width="1384.49" height="547.51"/></clipPath></defs><title>Artboard 5</title><g id="Images_fonts_colours" data-name="Images / fonts / colours"><g class="cls-2"><rect class="cls-1" x="0.51" y="0.18" width="1384.49" height="547.51"/><g class="cls-3"><rect class="cls-4" x="0.51" y="0.18" width="1384.49" height="547.51"/><path class="cls-5" d="M105.56,435.13c3.09,2,5.51,5.33,5.58,9.11.18,4.81-2.72,9.11-6,12.41-2.73,2.8-5.94,5.79-10,6.16-2.51.31-4.33-1.92-5.44-3.87a27.41,27.41,0,0,1-1.29-15c.71-3.28,2.19-6.72,5.24-8.43A11.42,11.42,0,0,1,105.56,435.13Z"/><path class="cls-5" d="M128.15,458a13.28,13.28,0,0,1,4.77,4.59c2.59,4.34,1.4,10.21-2,13.75-4,3.53-9.63,3.9-14.71,3.64-4-.4-8.46-1.27-10.74-4.92-.85-2.25.06-4.7,1.18-6.69a32.33,32.33,0,0,1,8.75-8.89,17.17,17.17,0,0,1,6.28-2.59A12.17,12.17,0,0,1,128.15,458Z"/><path class="cls-5" d="M71.55,438.48a10.27,10.27,0,0,1,6.2,8.84c0,4.5-.51,9.24-3,13.11-1,1.44-2.33,3-4.21,2.94-2.94.07-5.16-2.25-7-4.26-2.56-3.08-4.76-6.74-5.2-10.79a9.65,9.65,0,0,1,4.39-8.89A9.55,9.55,0,0,1,71.55,438.48Z"/><path class="cls-5" d="M123.6,490.77a10,10,0,0,1,5.73,5.47c2.51,5-.92,11.63-6.24,13-4.38,1.37-8.75-1.05-12.34-3.34-2.62-2-5.53-4.33-6.13-7.74-.47-3.14,2.67-5.09,5.16-6.14C114.14,490.46,119.05,489.55,123.6,490.77Z"/><path class="cls-5" d="M93.7,471.55c4.13,2.62,4.73,7.86,5.7,12.23,1,6.18,1.2,12.63-.48,18.71-1.46,4.49-4.35,8.94-8.94,10.68-6.46,3-15.21.06-18.08-6.57-1.17-2.46-.9-5.25-1.41-7.86a1.68,1.68,0,0,0-1.63-1.32c-3-.42-6.23-.4-8.86-2.1a14,14,0,0,1-5.45-16.8c1.61-4.57,5.78-7.73,10.22-9.29s9.13-1.45,13.71-1.2A36.56,36.56,0,0,1,93.7,471.55Z"/><path class="cls-5" d="M105.56,160.65c3.09,2,5.51,5.34,5.58,9.11.18,4.81-2.72,9.11-6,12.41-2.73,2.8-5.94,5.79-10,6.16-2.51.32-4.33-1.91-5.44-3.87a27.41,27.41,0,0,1-1.29-15c.71-3.28,2.19-6.72,5.24-8.43A11.42,11.42,0,0,1,105.56,160.65Z"/><path class="cls-5" d="M128.15,183.49a13.28,13.28,0,0,1,4.77,4.59c2.59,4.34,1.4,10.21-2,13.76-4,3.52-9.63,3.9-14.71,3.63-4-.4-8.46-1.27-10.74-4.92-.85-2.25.06-4.7,1.18-6.68a32.23,32.23,0,0,1,8.75-8.9,17.17,17.17,0,0,1,6.28-2.59A12.17,12.17,0,0,1,128.15,183.49Z"/><path class="cls-5" d="M71.55,164a10.28,10.28,0,0,1,6.2,8.85c0,4.49-.51,9.23-3,13.1-1,1.44-2.33,3-4.21,2.94-2.94.07-5.16-2.24-7-4.26-2.56-3.08-4.76-6.73-5.2-10.79A9.65,9.65,0,0,1,62.75,165,9.55,9.55,0,0,1,71.55,164Z"/><path class="cls-5" d="M123.6,216.29a10,10,0,0,1,5.73,5.47c2.51,5-.92,11.63-6.24,13-4.38,1.36-8.75-1.06-12.34-3.35-2.62-2-5.53-4.33-6.13-7.73-.47-3.15,2.67-5.09,5.16-6.15C114.14,216,119.05,215.08,123.6,216.29Z"/><path class="cls-5" d="M93.7,197.07c4.13,2.62,4.73,7.86,5.7,12.23,1,6.18,1.2,12.63-.48,18.71C97.46,232.5,94.57,237,90,238.69c-6.46,3-15.21.06-18.08-6.56-1.17-2.47-.9-5.26-1.41-7.87a1.68,1.68,0,0,0-1.63-1.32c-3-.42-6.23-.39-8.86-2.09A14.07,14.07,0,0,1,54.55,204c1.61-4.57,5.78-7.73,10.22-9.28s9.13-1.46,13.71-1.21A36.72,36.72,0,0,1,93.7,197.07Z"/><path class="cls-5" d="M169,297.89c-3.08,2-5.5,5.33-5.58,9.11-.17,4.81,2.73,9.11,6,12.41,2.73,2.8,5.93,5.79,10,6.16,2.52.31,4.34-1.92,5.45-3.87a27.5,27.5,0,0,0,1.29-15c-.71-3.28-2.19-6.72-5.24-8.43A11.44,11.44,0,0,0,169,297.89Z"/><path class="cls-5" d="M146.45,320.73a13.39,13.39,0,0,0-4.78,4.59c-2.59,4.34-1.4,10.21,2,13.76,4,3.52,9.64,3.89,14.71,3.63,4-.4,8.47-1.27,10.74-4.92.85-2.25-.06-4.7-1.18-6.69a32.33,32.33,0,0,0-8.75-8.89,17.17,17.17,0,0,0-6.28-2.59A12.15,12.15,0,0,0,146.45,320.73Z"/><path class="cls-5" d="M203.05,301.24a10.3,10.3,0,0,0-6.21,8.85c0,4.49.52,9.23,3,13.1.94,1.44,2.33,3,4.21,2.94,2.94.07,5.16-2.24,7-4.26,2.57-3.08,4.76-6.73,5.21-10.79a9.65,9.65,0,0,0-4.39-8.89A9.55,9.55,0,0,0,203.05,301.24Z"/><path class="cls-5" d="M151,353.53a10,10,0,0,0-5.74,5.47c-2.5,5,.92,11.63,6.25,13,4.37,1.36,8.75-1.06,12.34-3.35,2.61-2,5.53-4.33,6.12-7.73.47-3.15-2.66-5.09-5.15-6.15C160.45,353.22,155.55,352.31,151,353.53Z"/><path class="cls-5" d="M180.9,334.31c-4.14,2.62-4.73,7.86-5.71,12.23-1,6.18-1.19,12.63.48,18.71,1.46,4.49,4.36,8.94,9,10.68,6.45,3,15.2.06,18.08-6.57,1.16-2.46.89-5.25,1.41-7.86a1.68,1.68,0,0,1,1.63-1.32c3-.42,6.23-.4,8.86-2.1a14.06,14.06,0,0,0,5.45-16.8c-1.61-4.57-5.78-7.73-10.23-9.28s-9.12-1.46-13.7-1.21A36.68,36.68,0,0,0,180.9,334.31Z"/><path class="cls-5" d="M169,23.41c-3.08,2-5.5,5.34-5.58,9.12-.17,4.8,2.73,9.1,6,12.4,2.73,2.8,5.93,5.79,10,6.16,2.52.32,4.34-1.91,5.45-3.87a27.5,27.5,0,0,0,1.29-15c-.71-3.28-2.19-6.72-5.24-8.43A11.44,11.44,0,0,0,169,23.41Z"/><path class="cls-5" d="M146.45,46.25a13.39,13.39,0,0,0-4.78,4.59c-2.59,4.34-1.4,10.21,2,13.76,4,3.52,9.64,3.9,14.71,3.63,4-.4,8.47-1.27,10.74-4.92.85-2.25-.06-4.7-1.18-6.68a32.06,32.06,0,0,0-8.75-8.89,17,17,0,0,0-6.28-2.6A12.24,12.24,0,0,0,146.45,46.25Z"/><path class="cls-5" d="M203.05,26.76a10.31,10.31,0,0,0-6.21,8.85c0,4.5.52,9.23,3,13.1.94,1.44,2.33,3,4.21,2.95,2.94.06,5.16-2.25,7-4.27,2.57-3.08,4.76-6.73,5.21-10.79a9.75,9.75,0,0,0-13.19-9.84Z"/><path class="cls-5" d="M151,79.05a10,10,0,0,0-5.74,5.47c-2.5,5,.92,11.64,6.25,13,4.37,1.36,8.75-1.06,12.34-3.35,2.61-2,5.53-4.33,6.12-7.73.47-3.15-2.66-5.09-5.15-6.15C160.45,78.74,155.55,77.84,151,79.05Z"/><path class="cls-5" d="M180.9,59.83c-4.14,2.62-4.73,7.86-5.71,12.23-1,6.18-1.19,12.63.48,18.71,1.46,4.49,4.36,9,9,10.68,6.45,3,15.2.06,18.08-6.56,1.16-2.47.89-5.26,1.41-7.87a1.69,1.69,0,0,1,1.63-1.32c3-.42,6.23-.39,8.86-2.09a14.08,14.08,0,0,0,5.45-16.81c-1.61-4.57-5.78-7.73-10.23-9.28s-9.12-1.46-13.7-1.21A36.68,36.68,0,0,0,180.9,59.83Z"/><path class="cls-5" d="M301.81,435.13c3.08,2,5.51,5.33,5.58,9.11.17,4.81-2.73,9.11-6,12.41-2.73,2.8-5.93,5.79-10,6.16-2.52.31-4.33-1.92-5.45-3.87a27.41,27.41,0,0,1-1.28-15c.7-3.28,2.18-6.72,5.24-8.43A11.42,11.42,0,0,1,301.81,435.13Z"/><path class="cls-5" d="M324.4,458a13.44,13.44,0,0,1,4.77,4.59c2.59,4.34,1.4,10.21-2,13.75-4,3.53-9.64,3.9-14.71,3.64-4-.4-8.47-1.27-10.74-4.92-.85-2.25.06-4.7,1.18-6.69a32.33,32.33,0,0,1,8.75-8.89,17.17,17.17,0,0,1,6.28-2.59A12.17,12.17,0,0,1,324.4,458Z"/><path class="cls-5" d="M267.79,438.48a10.28,10.28,0,0,1,6.21,8.84c0,4.5-.52,9.24-3,13.11-.94,1.44-2.32,3-4.21,2.94-2.94.07-5.16-2.25-7-4.26-2.57-3.08-4.76-6.74-5.2-10.79a9.74,9.74,0,0,1,13.18-9.84Z"/><path class="cls-5" d="M319.85,490.77a10,10,0,0,1,5.73,5.47c2.5,5-.92,11.63-6.24,13-4.38,1.37-8.76-1.05-12.35-3.34-2.61-2-5.53-4.33-6.12-7.74-.47-3.14,2.66-5.09,5.15-6.14C310.39,490.46,315.29,489.55,319.85,490.77Z"/><path class="cls-5" d="M289.94,471.55c4.14,2.62,4.73,7.86,5.71,12.23,1,6.18,1.19,12.63-.48,18.71-1.46,4.49-4.36,8.94-8.95,10.68-6.45,3-15.2.06-18.07-6.57-1.17-2.46-.9-5.25-1.42-7.86a1.67,1.67,0,0,0-1.63-1.32c-3-.42-6.22-.4-8.86-2.1a14.06,14.06,0,0,1-5.45-16.8c1.61-4.57,5.79-7.73,10.23-9.29s9.12-1.45,13.71-1.2A36.48,36.48,0,0,1,289.94,471.55Z"/><path class="cls-5" d="M301.81,160.65c3.08,2,5.51,5.34,5.58,9.11.17,4.81-2.73,9.11-6,12.41-2.73,2.8-5.93,5.79-10,6.16-2.52.32-4.33-1.91-5.45-3.87a27.41,27.41,0,0,1-1.28-15c.7-3.28,2.18-6.72,5.24-8.43A11.42,11.42,0,0,1,301.81,160.65Z"/><path class="cls-5" d="M324.4,183.49a13.44,13.44,0,0,1,4.77,4.59c2.59,4.34,1.4,10.21-2,13.76-4,3.52-9.64,3.9-14.71,3.63-4-.4-8.47-1.27-10.74-4.92-.85-2.25.06-4.7,1.18-6.68a32.23,32.23,0,0,1,8.75-8.9,17.17,17.17,0,0,1,6.28-2.59A12.17,12.17,0,0,1,324.4,183.49Z"/><path class="cls-5" d="M267.79,164a10.29,10.29,0,0,1,6.21,8.85c0,4.49-.52,9.23-3,13.1-.94,1.44-2.32,3-4.21,2.94-2.94.07-5.16-2.24-7-4.26-2.57-3.08-4.76-6.73-5.2-10.79A9.74,9.74,0,0,1,267.79,164Z"/><path class="cls-5" d="M319.85,216.29a10,10,0,0,1,5.73,5.47c2.5,5-.92,11.63-6.24,13-4.38,1.36-8.76-1.06-12.35-3.35-2.61-2-5.53-4.33-6.12-7.73-.47-3.15,2.66-5.09,5.15-6.15C310.39,216,315.29,215.08,319.85,216.29Z"/><path class="cls-5" d="M289.94,197.07c4.14,2.62,4.73,7.86,5.71,12.23,1,6.18,1.19,12.63-.48,18.71-1.46,4.49-4.36,8.94-8.95,10.68-6.45,3-15.2.06-18.07-6.56-1.17-2.47-.9-5.26-1.42-7.87a1.67,1.67,0,0,0-1.63-1.32c-3-.42-6.22-.39-8.86-2.09A14.08,14.08,0,0,1,250.79,204c1.61-4.57,5.79-7.73,10.23-9.28s9.12-1.46,13.71-1.21A36.64,36.64,0,0,1,289.94,197.07Z"/><path class="cls-5" d="M365.28,297.89c-3.08,2-5.51,5.33-5.58,9.11-.17,4.81,2.72,9.11,6,12.41,2.73,2.8,5.94,5.79,10,6.16,2.52.31,4.33-1.92,5.44-3.87a27.41,27.41,0,0,0,1.29-15c-.71-3.28-2.19-6.72-5.24-8.43A11.42,11.42,0,0,0,365.28,297.89Z"/><path class="cls-5" d="M342.69,320.73a13.28,13.28,0,0,0-4.77,4.59c-2.59,4.34-1.4,10.21,2,13.76,4,3.52,9.63,3.89,14.71,3.63,3.95-.4,8.46-1.27,10.74-4.92.85-2.25-.06-4.7-1.18-6.69a32.33,32.33,0,0,0-8.75-8.89,17.17,17.17,0,0,0-6.28-2.59A12.17,12.17,0,0,0,342.69,320.73Z"/><path class="cls-5" d="M399.29,301.24a10.27,10.27,0,0,0-6.2,8.85c0,4.49.51,9.23,3,13.1.94,1.44,2.32,3,4.2,2.94,2.94.07,5.17-2.24,7-4.26,2.57-3.08,4.76-6.73,5.2-10.79a9.74,9.74,0,0,0-13.19-9.84Z"/><path class="cls-5" d="M347.24,353.53a10,10,0,0,0-5.73,5.47c-2.51,5,.92,11.63,6.24,13,4.38,1.36,8.76-1.06,12.34-3.35,2.62-2,5.53-4.33,6.13-7.73.47-3.15-2.67-5.09-5.15-6.15C356.7,353.22,351.79,352.31,347.24,353.53Z"/><path class="cls-5" d="M377.15,334.31c-4.14,2.62-4.74,7.86-5.71,12.23-1,6.18-1.2,12.63.48,18.71,1.46,4.49,4.35,8.94,8.94,10.68,6.46,3,15.21.06,18.08-6.57,1.17-2.46.9-5.25,1.41-7.86a1.69,1.69,0,0,1,1.63-1.32c3-.42,6.23-.4,8.86-2.1a14.07,14.07,0,0,0,5.46-16.8c-1.62-4.57-5.79-7.73-10.23-9.28s-9.13-1.46-13.71-1.21A36.64,36.64,0,0,0,377.15,334.31Z"/><path class="cls-5" d="M365.28,23.41c-3.08,2-5.51,5.34-5.58,9.12-.17,4.8,2.72,9.1,6,12.4,2.73,2.8,5.94,5.79,10,6.16,2.52.32,4.33-1.91,5.44-3.87a27.41,27.41,0,0,0,1.29-15c-.71-3.28-2.19-6.72-5.24-8.43A11.42,11.42,0,0,0,365.28,23.41Z"/><path class="cls-5" d="M342.69,46.25a13.28,13.28,0,0,0-4.77,4.59c-2.59,4.34-1.4,10.21,2,13.76,4,3.52,9.63,3.9,14.71,3.63,3.95-.4,8.46-1.27,10.74-4.92.85-2.25-.06-4.7-1.18-6.68a32.06,32.06,0,0,0-8.75-8.89,17,17,0,0,0-6.28-2.6A12.26,12.26,0,0,0,342.69,46.25Z"/><path class="cls-5" d="M399.29,26.76a10.28,10.28,0,0,0-6.2,8.85c0,4.5.51,9.23,3,13.1.94,1.44,2.32,3,4.2,2.95,2.94.06,5.17-2.25,7-4.27,2.57-3.08,4.76-6.73,5.2-10.79a9.74,9.74,0,0,0-13.19-9.84Z"/><path class="cls-5" d="M347.24,79.05a10,10,0,0,0-5.73,5.47c-2.51,5,.92,11.64,6.24,13,4.38,1.36,8.76-1.06,12.34-3.35,2.62-2,5.53-4.33,6.13-7.73.47-3.15-2.67-5.09-5.15-6.15C356.7,78.74,351.79,77.84,347.24,79.05Z"/><path class="cls-5" d="M377.15,59.83c-4.14,2.62-4.74,7.86-5.71,12.23-1,6.18-1.2,12.63.48,18.71,1.46,4.49,4.35,9,8.94,10.68,6.46,3,15.21.06,18.08-6.56,1.17-2.47.9-5.26,1.41-7.87A1.7,1.7,0,0,1,402,85.7c3-.42,6.23-.39,8.86-2.09A14.08,14.08,0,0,0,416.3,66.8c-1.62-4.57-5.79-7.73-10.23-9.28s-9.13-1.46-13.71-1.21A36.64,36.64,0,0,0,377.15,59.83Z"/><path class="cls-5" d="M492.05,435.13c3.08,2,5.51,5.33,5.58,9.11.17,4.81-2.73,9.11-6,12.41-2.73,2.8-5.93,5.79-10,6.16-2.52.31-4.33-1.92-5.45-3.87a27.41,27.41,0,0,1-1.28-15c.7-3.28,2.18-6.72,5.24-8.43A11.42,11.42,0,0,1,492.05,435.13Z"/><path class="cls-5" d="M514.63,458a13.39,13.39,0,0,1,4.78,4.59c2.59,4.34,1.4,10.21-2,13.75-4,3.53-9.64,3.9-14.71,3.64-4-.4-8.47-1.27-10.74-4.92-.85-2.25.06-4.7,1.18-6.69a32.33,32.33,0,0,1,8.75-8.89,17.17,17.17,0,0,1,6.28-2.59A12.13,12.13,0,0,1,514.63,458Z"/><path class="cls-5" d="M458,438.48a10.28,10.28,0,0,1,6.21,8.84c0,4.5-.52,9.24-3,13.11-.94,1.44-2.32,3-4.21,2.94-2.94.07-5.16-2.25-7-4.26-2.57-3.08-4.76-6.74-5.2-10.79A9.74,9.74,0,0,1,458,438.48Z"/><path class="cls-5" d="M510.09,490.77a10,10,0,0,1,5.73,5.47c2.5,5-.92,11.63-6.24,13-4.38,1.37-8.76-1.05-12.35-3.34-2.61-2-5.53-4.33-6.12-7.74-.47-3.14,2.66-5.09,5.15-6.14C500.63,490.46,505.53,489.55,510.09,490.77Z"/><path class="cls-5" d="M480.18,471.55c4.14,2.62,4.73,7.86,5.71,12.23,1,6.18,1.19,12.63-.48,18.71-1.46,4.49-4.36,8.94-9,10.68-6.45,3-15.2.06-18.07-6.57-1.17-2.46-.9-5.25-1.42-7.86a1.67,1.67,0,0,0-1.63-1.32c-3-.42-6.22-.4-8.86-2.1a14.06,14.06,0,0,1-5.45-16.8c1.61-4.57,5.79-7.73,10.23-9.29s9.12-1.45,13.71-1.2A36.48,36.48,0,0,1,480.18,471.55Z"/><path class="cls-5" d="M492.05,160.65c3.08,2,5.51,5.34,5.58,9.11.17,4.81-2.73,9.11-6,12.41-2.73,2.8-5.93,5.79-10,6.16-2.52.32-4.33-1.91-5.45-3.87a27.41,27.41,0,0,1-1.28-15c.7-3.28,2.18-6.72,5.24-8.43A11.42,11.42,0,0,1,492.05,160.65Z"/><path class="cls-5" d="M514.63,183.49a13.39,13.39,0,0,1,4.78,4.59c2.59,4.34,1.4,10.21-2,13.76-4,3.52-9.64,3.9-14.71,3.63-4-.4-8.47-1.27-10.74-4.92-.85-2.25.06-4.7,1.18-6.68a32.23,32.23,0,0,1,8.75-8.9,17.17,17.17,0,0,1,6.28-2.59A12.13,12.13,0,0,1,514.63,183.49Z"/><path class="cls-5" d="M458,164a10.29,10.29,0,0,1,6.21,8.85c0,4.49-.52,9.23-3,13.1-.94,1.44-2.32,3-4.21,2.94-2.94.07-5.16-2.24-7-4.26-2.57-3.08-4.76-6.73-5.2-10.79A9.74,9.74,0,0,1,458,164Z"/><path class="cls-5" d="M510.09,216.29a10,10,0,0,1,5.73,5.47c2.5,5-.92,11.63-6.24,13-4.38,1.36-8.76-1.06-12.35-3.35-2.61-2-5.53-4.33-6.12-7.73-.47-3.15,2.66-5.09,5.15-6.15C500.63,216,505.53,215.08,510.09,216.29Z"/><path class="cls-5" d="M480.18,197.07c4.14,2.62,4.73,7.86,5.71,12.23,1,6.18,1.19,12.63-.48,18.71-1.46,4.49-4.36,8.94-9,10.68-6.45,3-15.2.06-18.07-6.56-1.17-2.47-.9-5.26-1.42-7.87a1.67,1.67,0,0,0-1.63-1.32c-3-.42-6.22-.39-8.86-2.09A14.08,14.08,0,0,1,441,204c1.61-4.57,5.79-7.73,10.23-9.28s9.12-1.46,13.71-1.21A36.64,36.64,0,0,1,480.18,197.07Z"/><path class="cls-5" d="M555.52,297.89c-3.08,2-5.51,5.33-5.58,9.11-.17,4.81,2.72,9.11,6,12.41,2.73,2.8,5.94,5.79,10,6.16,2.52.31,4.33-1.92,5.44-3.87a27.41,27.41,0,0,0,1.29-15c-.71-3.28-2.19-6.72-5.24-8.43A11.42,11.42,0,0,0,555.52,297.89Z"/><path class="cls-5" d="M532.93,320.73a13.28,13.28,0,0,0-4.77,4.59c-2.59,4.34-1.4,10.21,2,13.76,4,3.52,9.63,3.89,14.71,3.63,4-.4,8.46-1.27,10.74-4.92.85-2.25-.06-4.7-1.18-6.69a32.33,32.33,0,0,0-8.75-8.89,17.17,17.17,0,0,0-6.28-2.59A12.17,12.17,0,0,0,532.93,320.73Z"/><path class="cls-5" d="M589.53,301.24a10.27,10.27,0,0,0-6.2,8.85c0,4.49.51,9.23,3,13.1.94,1.44,2.32,3,4.2,2.94,2.94.07,5.17-2.24,7-4.26,2.57-3.08,4.76-6.73,5.2-10.79a9.74,9.74,0,0,0-13.19-9.84Z"/><path class="cls-5" d="M537.48,353.53a10,10,0,0,0-5.73,5.47c-2.51,5,.92,11.63,6.24,13,4.38,1.36,8.76-1.06,12.34-3.35,2.62-2,5.53-4.33,6.13-7.73.47-3.15-2.67-5.09-5.15-6.15C546.94,353.22,542,352.31,537.48,353.53Z"/><path class="cls-5" d="M567.39,334.31c-4.14,2.62-4.74,7.86-5.71,12.23-1,6.18-1.2,12.63.48,18.71,1.46,4.49,4.35,8.94,8.94,10.68,6.46,3,15.21.06,18.08-6.57,1.17-2.46.9-5.25,1.41-7.86a1.69,1.69,0,0,1,1.63-1.32c3-.42,6.23-.4,8.86-2.1a14.07,14.07,0,0,0,5.46-16.8c-1.62-4.57-5.79-7.73-10.23-9.28s-9.13-1.46-13.71-1.21A36.64,36.64,0,0,0,567.39,334.31Z"/><path class="cls-5" d="M555.52,23.41c-3.08,2-5.51,5.34-5.58,9.12-.17,4.8,2.72,9.1,6,12.4,2.73,2.8,5.94,5.79,10,6.16,2.52.32,4.33-1.91,5.44-3.87a27.41,27.41,0,0,0,1.29-15c-.71-3.28-2.19-6.72-5.24-8.43A11.42,11.42,0,0,0,555.52,23.41Z"/><path class="cls-5" d="M532.93,46.25a13.28,13.28,0,0,0-4.77,4.59c-2.59,4.34-1.4,10.21,2,13.76,4,3.52,9.63,3.9,14.71,3.63,4-.4,8.46-1.27,10.74-4.92.85-2.25-.06-4.7-1.18-6.68a32.06,32.06,0,0,0-8.75-8.89,17,17,0,0,0-6.28-2.6A12.26,12.26,0,0,0,532.93,46.25Z"/><path class="cls-5" d="M589.53,26.76a10.28,10.28,0,0,0-6.2,8.85c0,4.5.51,9.23,3,13.1.94,1.44,2.32,3,4.2,2.95,2.94.06,5.17-2.25,7-4.27,2.57-3.08,4.76-6.73,5.2-10.79a9.74,9.74,0,0,0-13.19-9.84Z"/><path class="cls-5" d="M537.48,79.05a10,10,0,0,0-5.73,5.47c-2.51,5,.92,11.64,6.24,13,4.38,1.36,8.76-1.06,12.34-3.35,2.62-2,5.53-4.33,6.13-7.73.47-3.15-2.67-5.09-5.15-6.15C546.94,78.74,542,77.84,537.48,79.05Z"/><path class="cls-5" d="M567.39,59.83c-4.14,2.62-4.74,7.86-5.71,12.23-1,6.18-1.2,12.63.48,18.71,1.46,4.49,4.35,9,8.94,10.68,6.46,3,15.21.06,18.08-6.56,1.17-2.47.9-5.26,1.41-7.87a1.7,1.7,0,0,1,1.63-1.32c3-.42,6.23-.39,8.86-2.09a14.08,14.08,0,0,0,5.46-16.81c-1.62-4.57-5.79-7.73-10.23-9.28s-9.13-1.46-13.71-1.21A36.64,36.64,0,0,0,567.39,59.83Z"/><path class="cls-5" d="M688.3,435.13c3.08,2,5.5,5.33,5.58,9.11.17,4.81-2.73,9.11-6,12.41-2.73,2.8-5.94,5.79-10,6.16-2.52.31-4.34-1.92-5.45-3.87a27.41,27.41,0,0,1-1.29-15c.71-3.28,2.19-6.72,5.24-8.43A11.44,11.44,0,0,1,688.3,435.13Z"/><path class="cls-5" d="M710.88,458a13.28,13.28,0,0,1,4.77,4.59c2.59,4.34,1.4,10.21-2,13.75-4,3.53-9.63,3.9-14.71,3.64-3.95-.4-8.46-1.27-10.74-4.92-.84-2.25.06-4.7,1.18-6.69a32.33,32.33,0,0,1,8.75-8.89,17.17,17.17,0,0,1,6.28-2.59A12.17,12.17,0,0,1,710.88,458Z"/><path class="cls-5" d="M654.28,438.48a10.27,10.27,0,0,1,6.2,8.84c0,4.5-.51,9.24-3,13.11-1,1.44-2.33,3-4.21,2.94-2.94.07-5.16-2.25-7-4.26-2.56-3.08-4.76-6.74-5.2-10.79a9.65,9.65,0,0,1,4.39-8.89A9.55,9.55,0,0,1,654.28,438.48Z"/><path class="cls-5" d="M706.33,490.77a10.06,10.06,0,0,1,5.74,5.47c2.5,5-.93,11.63-6.25,13-4.37,1.37-8.75-1.05-12.34-3.34-2.61-2-5.53-4.33-6.13-7.74-.46-3.14,2.67-5.09,5.16-6.14C696.88,490.46,701.78,489.55,706.33,490.77Z"/><path class="cls-5" d="M676.43,471.55c4.13,2.62,4.73,7.86,5.7,12.23,1,6.18,1.2,12.63-.47,18.71-1.46,4.49-4.36,8.94-8.95,10.68-6.46,3-15.2.06-18.08-6.57-1.17-2.46-.89-5.25-1.41-7.86a1.68,1.68,0,0,0-1.63-1.32c-3-.42-6.23-.4-8.86-2.1a14,14,0,0,1-5.45-16.8c1.61-4.57,5.78-7.73,10.22-9.29s9.13-1.45,13.71-1.2A36.56,36.56,0,0,1,676.43,471.55Z"/><path class="cls-5" d="M688.3,160.65c3.08,2,5.5,5.34,5.58,9.11.17,4.81-2.73,9.11-6,12.41-2.73,2.8-5.94,5.79-10,6.16-2.52.32-4.34-1.91-5.45-3.87a27.41,27.41,0,0,1-1.29-15c.71-3.28,2.19-6.72,5.24-8.43A11.44,11.44,0,0,1,688.3,160.65Z"/><path class="cls-5" d="M710.88,183.49a13.28,13.28,0,0,1,4.77,4.59c2.59,4.34,1.4,10.21-2,13.76-4,3.52-9.63,3.9-14.71,3.63-3.95-.4-8.46-1.27-10.74-4.92-.84-2.25.06-4.7,1.18-6.68a32.23,32.23,0,0,1,8.75-8.9,17.17,17.17,0,0,1,6.28-2.59A12.17,12.17,0,0,1,710.88,183.49Z"/><path class="cls-5" d="M654.28,164a10.28,10.28,0,0,1,6.2,8.85c0,4.49-.51,9.23-3,13.1-1,1.44-2.33,3-4.21,2.94-2.94.07-5.16-2.24-7-4.26-2.56-3.08-4.76-6.73-5.2-10.79a9.65,9.65,0,0,1,4.39-8.89A9.55,9.55,0,0,1,654.28,164Z"/><path class="cls-5" d="M706.33,216.29a10.06,10.06,0,0,1,5.74,5.47c2.5,5-.93,11.63-6.25,13-4.37,1.36-8.75-1.06-12.34-3.35-2.61-2-5.53-4.33-6.13-7.73-.46-3.15,2.67-5.09,5.16-6.15C696.88,216,701.78,215.08,706.33,216.29Z"/><path class="cls-5" d="M676.43,197.07c4.13,2.62,4.73,7.86,5.7,12.23,1,6.18,1.2,12.63-.47,18.71-1.46,4.49-4.36,8.94-8.95,10.68-6.46,3-15.2.06-18.08-6.56-1.17-2.47-.89-5.26-1.41-7.87a1.68,1.68,0,0,0-1.63-1.32c-3-.42-6.23-.39-8.86-2.09A14.07,14.07,0,0,1,637.28,204c1.61-4.57,5.78-7.73,10.22-9.28s9.13-1.46,13.71-1.21A36.72,36.72,0,0,1,676.43,197.07Z"/><path class="cls-5" d="M6.64,301.24a10.3,10.3,0,0,0-6.21,8.85c0,4.49.52,9.23,3,13.1.94,1.44,2.32,3,4.21,2.94,2.94.07,5.16-2.24,7-4.26,2.57-3.08,4.76-6.73,5.2-10.79a9.74,9.74,0,0,0-13.18-9.84Z"/><path class="cls-5" d="M-15.51,334.31c-4.14,2.62-4.73,7.86-5.71,12.23-1,6.18-1.19,12.63.48,18.71,1.46,4.49,4.36,8.94,9,10.68,6.45,3,15.2.06,18.08-6.57,1.16-2.46.89-5.25,1.41-7.86a1.67,1.67,0,0,1,1.63-1.32c3-.42,6.22-.4,8.86-2.1a14.06,14.06,0,0,0,5.45-16.8c-1.61-4.57-5.79-7.73-10.23-9.28s-9.12-1.46-13.7-1.21A36.68,36.68,0,0,0-15.51,334.31Z"/><path class="cls-5" d="M6.64,26.76A10.31,10.31,0,0,0,.43,35.61c0,4.5.52,9.23,3,13.1.94,1.44,2.32,3,4.21,2.95,2.94.06,5.16-2.25,7-4.27,2.57-3.08,4.76-6.73,5.2-10.79A9.74,9.74,0,0,0,6.64,26.76Z"/><path class="cls-5" d="M-15.51,59.83c-4.14,2.62-4.73,7.86-5.71,12.23-1,6.18-1.19,12.63.48,18.71,1.46,4.49,4.36,9,9,10.68,6.45,3,15.2.06,18.08-6.56,1.16-2.47.89-5.26,1.41-7.87A1.68,1.68,0,0,1,9.33,85.7c3-.42,6.22-.39,8.86-2.09A14.08,14.08,0,0,0,23.64,66.8c-1.61-4.57-5.79-7.73-10.23-9.28S4.29,56.06-.29,56.31A36.68,36.68,0,0,0-15.51,59.83Z"/><path class="cls-5" d="M752.42,297.89c-3.08,2-5.5,5.33-5.58,9.11-.17,4.81,2.73,9.11,6,12.41,2.73,2.8,5.94,5.79,10,6.16,2.52.31,4.34-1.92,5.45-3.87a27.41,27.41,0,0,0,1.29-15c-.71-3.28-2.19-6.72-5.24-8.43A11.44,11.44,0,0,0,752.42,297.89Z"/><path class="cls-5" d="M729.84,320.73a13.39,13.39,0,0,0-4.78,4.59c-2.58,4.34-1.39,10.21,2,13.76,4,3.52,9.63,3.89,14.71,3.63,4-.4,8.46-1.27,10.74-4.92.84-2.25-.07-4.7-1.19-6.69a32.29,32.29,0,0,0-8.74-8.89,17.29,17.29,0,0,0-6.29-2.59A12.15,12.15,0,0,0,729.84,320.73Z"/><path class="cls-5" d="M786.44,301.24a10.27,10.27,0,0,0-6.2,8.85c0,4.49.51,9.23,3,13.1.95,1.44,2.33,3,4.21,2.94,2.94.07,5.16-2.24,7-4.26,2.57-3.08,4.76-6.73,5.21-10.79a9.65,9.65,0,0,0-4.39-8.89A9.55,9.55,0,0,0,786.44,301.24Z"/><path class="cls-5" d="M734.39,353.53a10.06,10.06,0,0,0-5.74,5.47c-2.5,5,.93,11.63,6.25,13,4.37,1.36,8.75-1.06,12.34-3.35,2.61-2,5.53-4.33,6.13-7.73.46-3.15-2.67-5.09-5.16-6.15C743.84,353.22,738.94,352.31,734.39,353.53Z"/><path class="cls-5" d="M764.29,334.31c-4.13,2.62-4.73,7.86-5.7,12.23-1,6.18-1.2,12.63.47,18.71,1.46,4.49,4.36,8.94,9,10.68,6.46,3,15.2.06,18.08-6.57,1.17-2.46.89-5.25,1.41-7.86a1.68,1.68,0,0,1,1.63-1.32c3-.42,6.23-.4,8.86-2.1a14,14,0,0,0,5.45-16.8c-1.61-4.57-5.78-7.73-10.23-9.28s-9.12-1.46-13.7-1.21A36.72,36.72,0,0,0,764.29,334.31Z"/><path class="cls-5" d="M752.42,23.41c-3.08,2-5.5,5.34-5.58,9.12-.17,4.8,2.73,9.1,6,12.4,2.73,2.8,5.94,5.79,10,6.16,2.52.32,4.34-1.91,5.45-3.87a27.41,27.41,0,0,0,1.29-15c-.71-3.28-2.19-6.72-5.24-8.43A11.44,11.44,0,0,0,752.42,23.41Z"/><path class="cls-5" d="M729.84,46.25a13.39,13.39,0,0,0-4.78,4.59c-2.58,4.34-1.39,10.21,2,13.76,4,3.52,9.63,3.9,14.71,3.63,4-.4,8.46-1.27,10.74-4.92.84-2.25-.07-4.7-1.19-6.68a32,32,0,0,0-8.74-8.89,17.14,17.14,0,0,0-6.29-2.6A12.24,12.24,0,0,0,729.84,46.25Z"/><path class="cls-5" d="M786.44,26.76a10.28,10.28,0,0,0-6.2,8.85c0,4.5.51,9.23,3,13.1.95,1.44,2.33,3,4.21,2.95,2.94.06,5.16-2.25,7-4.27,2.57-3.08,4.76-6.73,5.21-10.79a9.75,9.75,0,0,0-13.19-9.84Z"/><path class="cls-5" d="M734.39,79.05a10.06,10.06,0,0,0-5.74,5.47c-2.5,5,.93,11.64,6.25,13,4.37,1.36,8.75-1.06,12.34-3.35,2.61-2,5.53-4.33,6.13-7.73.46-3.15-2.67-5.09-5.16-6.15C743.84,78.74,738.94,77.84,734.39,79.05Z"/><path class="cls-5" d="M764.29,59.83c-4.13,2.62-4.73,7.86-5.7,12.23-1,6.18-1.2,12.63.47,18.71,1.46,4.49,4.36,9,9,10.68,6.46,3,15.2.06,18.08-6.56,1.17-2.47.89-5.26,1.41-7.87a1.69,1.69,0,0,1,1.63-1.32c3-.42,6.23-.39,8.86-2.09a14.06,14.06,0,0,0,5.45-16.81c-1.61-4.57-5.78-7.73-10.23-9.28s-9.12-1.46-13.7-1.21A36.72,36.72,0,0,0,764.29,59.83Z"/><path class="cls-5" d="M885.2,435.13c3.08,2,5.51,5.33,5.58,9.11.17,4.81-2.72,9.11-6,12.41-2.73,2.8-5.94,5.79-10,6.16-2.52.31-4.33-1.92-5.45-3.87a27.5,27.5,0,0,1-1.28-15c.71-3.28,2.19-6.72,5.24-8.43A11.42,11.42,0,0,1,885.2,435.13Z"/><path class="cls-5" d="M907.79,458a13.28,13.28,0,0,1,4.77,4.59c2.59,4.34,1.4,10.21-2,13.75-4,3.53-9.63,3.9-14.71,3.64-4-.4-8.47-1.27-10.74-4.92-.85-2.25.06-4.7,1.18-6.69a32.33,32.33,0,0,1,8.75-8.89,17.17,17.17,0,0,1,6.28-2.59A12.17,12.17,0,0,1,907.79,458Z"/><path class="cls-5" d="M851.19,438.48a10.27,10.27,0,0,1,6.2,8.84c0,4.5-.51,9.24-3,13.11-.94,1.44-2.32,3-4.2,2.94-2.94.07-5.17-2.25-7-4.26-2.57-3.08-4.76-6.74-5.2-10.79a9.74,9.74,0,0,1,13.19-9.84Z"/><path class="cls-5" d="M903.24,490.77a10,10,0,0,1,5.73,5.47c2.5,5-.92,11.63-6.24,13-4.38,1.37-8.76-1.05-12.35-3.34-2.61-2-5.53-4.33-6.12-7.74-.47-3.14,2.66-5.09,5.15-6.14C893.78,490.46,898.69,489.55,903.24,490.77Z"/><path class="cls-5" d="M873.33,471.55c4.14,2.62,4.74,7.86,5.71,12.23,1,6.18,1.2,12.63-.48,18.71-1.46,4.49-4.36,8.94-8.94,10.68-6.46,3-15.21.06-18.08-6.57-1.17-2.46-.9-5.25-1.41-7.86a1.69,1.69,0,0,0-1.63-1.32c-3-.42-6.23-.4-8.86-2.1a14.05,14.05,0,0,1-5.46-16.8c1.62-4.57,5.79-7.73,10.23-9.29s9.12-1.45,13.71-1.2A36.48,36.48,0,0,1,873.33,471.55Z"/><path class="cls-5" d="M885.2,160.65c3.08,2,5.51,5.34,5.58,9.11.17,4.81-2.72,9.11-6,12.41-2.73,2.8-5.94,5.79-10,6.16-2.52.32-4.33-1.91-5.45-3.87a27.5,27.5,0,0,1-1.28-15c.71-3.28,2.19-6.72,5.24-8.43A11.42,11.42,0,0,1,885.2,160.65Z"/><path class="cls-5" d="M907.79,183.49a13.28,13.28,0,0,1,4.77,4.59c2.59,4.34,1.4,10.21-2,13.76-4,3.52-9.63,3.9-14.71,3.63-4-.4-8.47-1.27-10.74-4.92-.85-2.25.06-4.7,1.18-6.68A32.23,32.23,0,0,1,895,185a17.17,17.17,0,0,1,6.28-2.59A12.17,12.17,0,0,1,907.79,183.49Z"/><path class="cls-5" d="M851.19,164a10.28,10.28,0,0,1,6.2,8.85c0,4.49-.51,9.23-3,13.1-.94,1.44-2.32,3-4.2,2.94-2.94.07-5.17-2.24-7-4.26-2.57-3.08-4.76-6.73-5.2-10.79A9.74,9.74,0,0,1,851.19,164Z"/><path class="cls-5" d="M903.24,216.29a10,10,0,0,1,5.73,5.47c2.5,5-.92,11.63-6.24,13-4.38,1.36-8.76-1.06-12.35-3.35-2.61-2-5.53-4.33-6.12-7.73-.47-3.15,2.66-5.09,5.15-6.15C893.78,216,898.69,215.08,903.24,216.29Z"/><path class="cls-5" d="M873.33,197.07c4.14,2.62,4.74,7.86,5.71,12.23,1,6.18,1.2,12.63-.48,18.71-1.46,4.49-4.36,8.94-8.94,10.68-6.46,3-15.21.06-18.08-6.56-1.17-2.47-.9-5.26-1.41-7.87a1.69,1.69,0,0,0-1.63-1.32c-3-.42-6.23-.39-8.86-2.09A14.07,14.07,0,0,1,834.18,204c1.62-4.57,5.79-7.73,10.23-9.28s9.12-1.46,13.71-1.21A36.64,36.64,0,0,1,873.33,197.07Z"/><path class="cls-5" d="M948.67,297.89c-3.08,2-5.51,5.33-5.58,9.11-.17,4.81,2.73,9.11,6,12.41,2.74,2.8,5.94,5.79,10,6.16,2.52.31,4.33-1.92,5.45-3.87a27.41,27.41,0,0,0,1.28-15c-.7-3.28-2.19-6.72-5.24-8.43A11.42,11.42,0,0,0,948.67,297.89Z"/><path class="cls-5" d="M926.08,320.73a13.44,13.44,0,0,0-4.77,4.59c-2.59,4.34-1.4,10.21,2,13.76,4,3.52,9.64,3.89,14.71,3.63,4-.4,8.47-1.27,10.74-4.92.85-2.25-.06-4.7-1.18-6.69a32.33,32.33,0,0,0-8.75-8.89,17.17,17.17,0,0,0-6.28-2.59A12.17,12.17,0,0,0,926.08,320.73Z"/><path class="cls-5" d="M982.69,301.24a10.28,10.28,0,0,0-6.21,8.85c0,4.49.52,9.23,3,13.1.94,1.44,2.32,3,4.21,2.94,2.93.07,5.16-2.24,7-4.26,2.57-3.08,4.76-6.73,5.2-10.79a9.74,9.74,0,0,0-13.18-9.84Z"/><path class="cls-5" d="M930.63,353.53A10,10,0,0,0,924.9,359c-2.5,5,.92,11.63,6.24,13,4.38,1.36,8.76-1.06,12.35-3.35,2.61-2,5.53-4.33,6.12-7.73.47-3.15-2.66-5.09-5.15-6.15C940.09,353.22,935.19,352.31,930.63,353.53Z"/><path class="cls-5" d="M960.54,334.31c-4.14,2.62-4.73,7.86-5.71,12.23-1,6.18-1.19,12.63.48,18.71,1.46,4.49,4.36,8.94,9,10.68,6.45,3,15.2.06,18.07-6.57,1.17-2.46.9-5.25,1.42-7.86a1.67,1.67,0,0,1,1.63-1.32c3-.42,6.22-.4,8.86-2.1a14.06,14.06,0,0,0,5.45-16.8c-1.62-4.57-5.79-7.73-10.23-9.28s-9.12-1.46-13.71-1.21A36.64,36.64,0,0,0,960.54,334.31Z"/><path class="cls-5" d="M948.67,23.41c-3.08,2-5.51,5.34-5.58,9.12-.17,4.8,2.73,9.1,6,12.4,2.74,2.8,5.94,5.79,10,6.16,2.52.32,4.33-1.91,5.45-3.87a27.41,27.41,0,0,0,1.28-15c-.7-3.28-2.19-6.72-5.24-8.43A11.42,11.42,0,0,0,948.67,23.41Z"/><path class="cls-5" d="M926.08,46.25a13.44,13.44,0,0,0-4.77,4.59c-2.59,4.34-1.4,10.21,2,13.76,4,3.52,9.64,3.9,14.71,3.63,4-.4,8.47-1.27,10.74-4.92.85-2.25-.06-4.7-1.18-6.68a32.06,32.06,0,0,0-8.75-8.89,17,17,0,0,0-6.28-2.6A12.26,12.26,0,0,0,926.08,46.25Z"/><path class="cls-5" d="M982.69,26.76a10.29,10.29,0,0,0-6.21,8.85c0,4.5.52,9.23,3,13.1.94,1.44,2.32,3,4.21,2.95,2.93.06,5.16-2.25,7-4.27,2.57-3.08,4.76-6.73,5.2-10.79a9.74,9.74,0,0,0-13.18-9.84Z"/><path class="cls-5" d="M930.63,79.05a10,10,0,0,0-5.73,5.47c-2.5,5,.92,11.64,6.24,13,4.38,1.36,8.76-1.06,12.35-3.35,2.61-2,5.53-4.33,6.12-7.73.47-3.15-2.66-5.09-5.15-6.15C940.09,78.74,935.19,77.84,930.63,79.05Z"/><path class="cls-5" d="M960.54,59.83c-4.14,2.62-4.73,7.86-5.71,12.23-1,6.18-1.19,12.63.48,18.71,1.46,4.49,4.36,9,9,10.68,6.45,3,15.2.06,18.07-6.56,1.17-2.47.9-5.26,1.42-7.87a1.68,1.68,0,0,1,1.63-1.32c3-.42,6.22-.39,8.86-2.09a14.08,14.08,0,0,0,5.45-16.81c-1.62-4.57-5.79-7.73-10.23-9.28s-9.12-1.46-13.71-1.21A36.64,36.64,0,0,0,960.54,59.83Z"/><path class="cls-5" d="M1075.44,435.13c3.08,2,5.51,5.33,5.58,9.11.17,4.81-2.72,9.11-6,12.41-2.73,2.8-5.94,5.79-10,6.16-2.52.31-4.33-1.92-5.45-3.87a27.5,27.5,0,0,1-1.28-15c.71-3.28,2.19-6.72,5.24-8.43A11.42,11.42,0,0,1,1075.44,435.13Z"/><path class="cls-5" d="M1098,458a13.28,13.28,0,0,1,4.77,4.59c2.59,4.34,1.4,10.21-2,13.75-4,3.53-9.63,3.9-14.71,3.64-3.95-.4-8.47-1.27-10.74-4.92-.85-2.25.06-4.7,1.18-6.69a32.33,32.33,0,0,1,8.75-8.89,17.17,17.17,0,0,1,6.28-2.59A12.17,12.17,0,0,1,1098,458Z"/><path class="cls-5" d="M1041.43,438.48a10.27,10.27,0,0,1,6.2,8.84c0,4.5-.51,9.24-3,13.11-.94,1.44-2.32,3-4.21,2.94-2.93.07-5.16-2.25-7-4.26-2.57-3.08-4.76-6.74-5.2-10.79a9.74,9.74,0,0,1,13.19-9.84Z"/><path class="cls-5" d="M1093.48,490.77a10,10,0,0,1,5.73,5.47c2.5,5-.92,11.63-6.24,13-4.38,1.37-8.76-1.05-12.35-3.34-2.61-2-5.53-4.33-6.12-7.74-.47-3.14,2.66-5.09,5.15-6.14C1084,490.46,1088.93,489.55,1093.48,490.77Z"/><path class="cls-5" d="M1063.57,471.55c4.14,2.62,4.74,7.86,5.71,12.23,1,6.18,1.2,12.63-.48,18.71-1.46,4.49-4.36,8.94-8.94,10.68-6.46,3-15.21.06-18.08-6.57-1.17-2.46-.9-5.25-1.42-7.86a1.67,1.67,0,0,0-1.62-1.32c-3-.42-6.23-.4-8.86-2.1a14.05,14.05,0,0,1-5.46-16.8c1.62-4.57,5.79-7.73,10.23-9.29s9.12-1.45,13.71-1.2A36.48,36.48,0,0,1,1063.57,471.55Z"/><path class="cls-5" d="M1075.44,160.65c3.08,2,5.51,5.34,5.58,9.11.17,4.81-2.72,9.11-6,12.41-2.73,2.8-5.94,5.79-10,6.16-2.52.32-4.33-1.91-5.45-3.87a27.5,27.5,0,0,1-1.28-15c.71-3.28,2.19-6.72,5.24-8.43A11.42,11.42,0,0,1,1075.44,160.65Z"/><path class="cls-5" d="M1098,183.49a13.28,13.28,0,0,1,4.77,4.59c2.59,4.34,1.4,10.21-2,13.76-4,3.52-9.63,3.9-14.71,3.63-3.95-.4-8.47-1.27-10.74-4.92-.85-2.25.06-4.7,1.18-6.68a32.23,32.23,0,0,1,8.75-8.9,17.17,17.17,0,0,1,6.28-2.59A12.17,12.17,0,0,1,1098,183.49Z"/><path class="cls-5" d="M1041.43,164a10.28,10.28,0,0,1,6.2,8.85c0,4.49-.51,9.23-3,13.1-.94,1.44-2.32,3-4.21,2.94-2.93.07-5.16-2.24-7-4.26-2.57-3.08-4.76-6.73-5.2-10.79a9.74,9.74,0,0,1,13.19-9.84Z"/><path class="cls-5" d="M1093.48,216.29a10,10,0,0,1,5.73,5.47c2.5,5-.92,11.63-6.24,13-4.38,1.36-8.76-1.06-12.35-3.35-2.61-2-5.53-4.33-6.12-7.73-.47-3.15,2.66-5.09,5.15-6.15C1084,216,1088.93,215.08,1093.48,216.29Z"/><path class="cls-5" d="M1063.57,197.07c4.14,2.62,4.74,7.86,5.71,12.23,1,6.18,1.2,12.63-.48,18.71-1.46,4.49-4.36,8.94-8.94,10.68-6.46,3-15.21.06-18.08-6.56-1.17-2.47-.9-5.26-1.42-7.87a1.67,1.67,0,0,0-1.62-1.32c-3-.42-6.23-.39-8.86-2.09a14.07,14.07,0,0,1-5.46-16.81c1.62-4.57,5.79-7.73,10.23-9.28s9.12-1.46,13.71-1.21A36.64,36.64,0,0,1,1063.57,197.07Z"/><path class="cls-5" d="M1138.91,297.89c-3.08,2-5.51,5.33-5.58,9.11-.17,4.81,2.73,9.11,6,12.41,2.73,2.8,5.94,5.79,10,6.16,2.52.31,4.33-1.92,5.45-3.87a27.5,27.5,0,0,0,1.28-15c-.7-3.28-2.19-6.72-5.24-8.43A11.42,11.42,0,0,0,1138.91,297.89Z"/><path class="cls-5" d="M1116.32,320.73a13.44,13.44,0,0,0-4.77,4.59c-2.59,4.34-1.4,10.21,2,13.76,4,3.52,9.64,3.89,14.71,3.63,4-.4,8.47-1.27,10.74-4.92.85-2.25-.06-4.7-1.18-6.69a32.33,32.33,0,0,0-8.75-8.89,17.17,17.17,0,0,0-6.28-2.59A12.17,12.17,0,0,0,1116.32,320.73Z"/><path class="cls-5" d="M1172.93,301.24a10.28,10.28,0,0,0-6.21,8.85c0,4.49.52,9.23,3,13.1.94,1.44,2.32,3,4.21,2.94,2.93.07,5.16-2.24,7-4.26,2.57-3.08,4.76-6.73,5.2-10.79a9.74,9.74,0,0,0-13.18-9.84Z"/><path class="cls-5" d="M1120.87,353.53a10,10,0,0,0-5.73,5.47c-2.5,5,.92,11.63,6.24,13,4.38,1.36,8.76-1.06,12.35-3.35,2.61-2,5.53-4.33,6.12-7.73.47-3.15-2.66-5.09-5.15-6.15C1130.33,353.22,1125.43,352.31,1120.87,353.53Z"/><path class="cls-5" d="M1150.78,334.31c-4.14,2.62-4.73,7.86-5.71,12.23-1,6.18-1.19,12.63.48,18.71,1.46,4.49,4.36,8.94,9,10.68,6.45,3,15.2.06,18.07-6.57,1.17-2.46.9-5.25,1.42-7.86a1.67,1.67,0,0,1,1.63-1.32c3-.42,6.22-.4,8.86-2.1a14.06,14.06,0,0,0,5.45-16.8c-1.62-4.57-5.79-7.73-10.23-9.28s-9.12-1.46-13.71-1.21A36.64,36.64,0,0,0,1150.78,334.31Z"/><path class="cls-5" d="M1138.91,23.41c-3.08,2-5.51,5.34-5.58,9.12-.17,4.8,2.73,9.1,6,12.4,2.73,2.8,5.94,5.79,10,6.16,2.52.32,4.33-1.91,5.45-3.87a27.5,27.5,0,0,0,1.28-15c-.7-3.28-2.19-6.72-5.24-8.43A11.42,11.42,0,0,0,1138.91,23.41Z"/><path class="cls-5" d="M1116.32,46.25a13.44,13.44,0,0,0-4.77,4.59c-2.59,4.34-1.4,10.21,2,13.76,4,3.52,9.64,3.9,14.71,3.63,4-.4,8.47-1.27,10.74-4.92.85-2.25-.06-4.7-1.18-6.68a32.06,32.06,0,0,0-8.75-8.89,17,17,0,0,0-6.28-2.6A12.26,12.26,0,0,0,1116.32,46.25Z"/><path class="cls-5" d="M1172.93,26.76a10.29,10.29,0,0,0-6.21,8.85c0,4.5.52,9.23,3,13.1.94,1.44,2.32,3,4.21,2.95,2.93.06,5.16-2.25,7-4.27,2.57-3.08,4.76-6.73,5.2-10.79a9.74,9.74,0,0,0-13.18-9.84Z"/><path class="cls-5" d="M1120.87,79.05a10,10,0,0,0-5.73,5.47c-2.5,5,.92,11.64,6.24,13,4.38,1.36,8.76-1.06,12.35-3.35,2.61-2,5.53-4.33,6.12-7.73.47-3.15-2.66-5.09-5.15-6.15C1130.33,78.74,1125.43,77.84,1120.87,79.05Z"/><path class="cls-5" d="M1150.78,59.83c-4.14,2.62-4.73,7.86-5.71,12.23-1,6.18-1.19,12.63.48,18.71,1.46,4.49,4.36,9,9,10.68,6.45,3,15.2.06,18.07-6.56,1.17-2.47.9-5.26,1.42-7.87a1.68,1.68,0,0,1,1.63-1.32c3-.42,6.22-.39,8.86-2.09a14.08,14.08,0,0,0,5.45-16.81c-1.62-4.57-5.79-7.73-10.23-9.28s-9.12-1.46-13.71-1.21A36.64,36.64,0,0,0,1150.78,59.83Z"/><path class="cls-5" d="M1271.69,435.13c3.08,2,5.5,5.33,5.58,9.11.17,4.81-2.73,9.11-6,12.41-2.73,2.8-5.94,5.79-10,6.16-2.52.31-4.34-1.92-5.45-3.87a27.5,27.5,0,0,1-1.29-15c.71-3.28,2.19-6.72,5.24-8.43A11.44,11.44,0,0,1,1271.69,435.13Z"/><path class="cls-5" d="M1294.27,458a13.39,13.39,0,0,1,4.78,4.59c2.58,4.34,1.4,10.21-2,13.75-4,3.53-9.63,3.9-14.71,3.64-4-.4-8.46-1.27-10.73-4.92-.85-2.25.06-4.7,1.18-6.69a32.43,32.43,0,0,1,8.74-8.89,17.29,17.29,0,0,1,6.29-2.59A12.15,12.15,0,0,1,1294.27,458Z"/><path class="cls-5" d="M1237.67,438.48a10.29,10.29,0,0,1,6.21,8.84c0,4.5-.52,9.24-3,13.11-.94,1.44-2.33,3-4.21,2.94-2.94.07-5.16-2.25-7-4.26-2.57-3.08-4.76-6.74-5.21-10.79a9.65,9.65,0,0,1,4.39-8.89A9.55,9.55,0,0,1,1237.67,438.48Z"/><path class="cls-5" d="M1289.72,490.77a10,10,0,0,1,5.74,5.47c2.5,5-.93,11.63-6.25,13-4.37,1.37-8.75-1.05-12.34-3.34-2.61-2-5.53-4.33-6.13-7.74-.46-3.14,2.67-5.09,5.16-6.14C1280.27,490.46,1285.17,489.55,1289.72,490.77Z"/><path class="cls-5" d="M1259.82,471.55c4.14,2.62,4.73,7.86,5.71,12.23,1,6.18,1.19,12.63-.48,18.71-1.46,4.49-4.36,8.94-9,10.68-6.46,3-15.2.06-18.08-6.57-1.16-2.46-.89-5.25-1.41-7.86a1.68,1.68,0,0,0-1.63-1.32c-3-.42-6.23-.4-8.86-2.1a14.06,14.06,0,0,1-5.45-16.8c1.61-4.57,5.78-7.73,10.23-9.29s9.12-1.45,13.7-1.2A36.53,36.53,0,0,1,1259.82,471.55Z"/><path class="cls-5" d="M1271.69,160.65c3.08,2,5.5,5.34,5.58,9.11.17,4.81-2.73,9.11-6,12.41-2.73,2.8-5.94,5.79-10,6.16-2.52.32-4.34-1.91-5.45-3.87a27.5,27.5,0,0,1-1.29-15c.71-3.28,2.19-6.72,5.24-8.43A11.44,11.44,0,0,1,1271.69,160.65Z"/><path class="cls-5" d="M1294.27,183.49a13.39,13.39,0,0,1,4.78,4.59c2.58,4.34,1.4,10.21-2,13.76-4,3.52-9.63,3.9-14.71,3.63-4-.4-8.46-1.27-10.73-4.92-.85-2.25.06-4.7,1.18-6.68a32.33,32.33,0,0,1,8.74-8.9,17.29,17.29,0,0,1,6.29-2.59A12.15,12.15,0,0,1,1294.27,183.49Z"/><path class="cls-5" d="M1237.67,164a10.31,10.31,0,0,1,6.21,8.85c0,4.49-.52,9.23-3,13.1-.94,1.44-2.33,3-4.21,2.94-2.94.07-5.16-2.24-7-4.26-2.57-3.08-4.76-6.73-5.21-10.79a9.65,9.65,0,0,1,4.39-8.89A9.55,9.55,0,0,1,1237.67,164Z"/><path class="cls-5" d="M1289.72,216.29a10,10,0,0,1,5.74,5.47c2.5,5-.93,11.63-6.25,13-4.37,1.36-8.75-1.06-12.34-3.35-2.61-2-5.53-4.33-6.13-7.73-.46-3.15,2.67-5.09,5.16-6.15C1280.27,216,1285.17,215.08,1289.72,216.29Z"/><path class="cls-5" d="M1259.82,197.07c4.14,2.62,4.73,7.86,5.71,12.23,1,6.18,1.19,12.63-.48,18.71-1.46,4.49-4.36,8.94-9,10.68-6.46,3-15.2.06-18.08-6.56-1.16-2.47-.89-5.26-1.41-7.87a1.68,1.68,0,0,0-1.63-1.32c-3-.42-6.23-.39-8.86-2.09a14.08,14.08,0,0,1-5.45-16.81c1.61-4.57,5.78-7.73,10.23-9.28s9.12-1.46,13.7-1.21A36.68,36.68,0,0,1,1259.82,197.07Z"/><path class="cls-5" d="M1335.17,297.89c-3.08,2-5.51,5.33-5.58,9.11-.17,4.81,2.73,9.11,6,12.41,2.73,2.8,5.93,5.79,10,6.16,2.52.31,4.33-1.92,5.45-3.87a27.41,27.41,0,0,0,1.28-15c-.7-3.28-2.18-6.72-5.24-8.43A11.42,11.42,0,0,0,1335.17,297.89Z"/><path class="cls-5" d="M1312.59,320.73a13.39,13.39,0,0,0-4.78,4.59c-2.59,4.34-1.4,10.21,2,13.76,4,3.52,9.64,3.89,14.71,3.63,4-.4,8.47-1.27,10.74-4.92.85-2.25-.06-4.7-1.18-6.69a32.33,32.33,0,0,0-8.75-8.89,17.17,17.17,0,0,0-6.28-2.59A12.13,12.13,0,0,0,1312.59,320.73Z"/><path class="cls-5" d="M1369.19,301.24a10.28,10.28,0,0,0-6.21,8.85c0,4.49.52,9.23,3,13.1.94,1.44,2.32,3,4.21,2.94,2.94.07,5.16-2.24,7-4.26,2.57-3.08,4.76-6.73,5.2-10.79a9.74,9.74,0,0,0-13.18-9.84Z"/><path class="cls-5" d="M1317.13,353.53a10,10,0,0,0-5.73,5.47c-2.5,5,.92,11.63,6.24,13,4.38,1.36,8.76-1.06,12.35-3.35,2.61-2,5.53-4.33,6.12-7.73.47-3.15-2.66-5.09-5.15-6.15C1326.59,353.22,1321.69,352.31,1317.13,353.53Z"/><path class="cls-5" d="M1347,334.31c-4.14,2.62-4.73,7.86-5.71,12.23-1,6.18-1.19,12.63.48,18.71,1.46,4.49,4.36,8.94,9,10.68,6.45,3,15.2.06,18.07-6.57,1.17-2.46.9-5.25,1.42-7.86a1.67,1.67,0,0,1,1.63-1.32c3-.42,6.22-.4,8.86-2.1a14.06,14.06,0,0,0,5.45-16.8c-1.61-4.57-5.79-7.73-10.23-9.28s-9.12-1.46-13.71-1.21A36.64,36.64,0,0,0,1347,334.31Z"/><path class="cls-5" d="M1335.17,23.41c-3.08,2-5.51,5.34-5.58,9.12-.17,4.8,2.73,9.1,6,12.4,2.73,2.8,5.93,5.79,10,6.16,2.52.32,4.33-1.91,5.45-3.87a27.41,27.41,0,0,0,1.28-15c-.7-3.28-2.18-6.72-5.24-8.43A11.42,11.42,0,0,0,1335.17,23.41Z"/><path class="cls-5" d="M1312.59,46.25a13.39,13.39,0,0,0-4.78,4.59c-2.59,4.34-1.4,10.21,2,13.76,4,3.52,9.64,3.9,14.71,3.63,4-.4,8.47-1.27,10.74-4.92.85-2.25-.06-4.7-1.18-6.68a32.06,32.06,0,0,0-8.75-8.89,17,17,0,0,0-6.28-2.6A12.23,12.23,0,0,0,1312.59,46.25Z"/><path class="cls-5" d="M1369.19,26.76a10.29,10.29,0,0,0-6.21,8.85c0,4.5.52,9.23,3,13.1.94,1.44,2.32,3,4.21,2.95,2.94.06,5.16-2.25,7-4.27,2.57-3.08,4.76-6.73,5.2-10.79a9.74,9.74,0,0,0-13.18-9.84Z"/><path class="cls-5" d="M1317.13,79.05a10,10,0,0,0-5.73,5.47c-2.5,5,.92,11.64,6.24,13,4.38,1.36,8.76-1.06,12.35-3.35,2.61-2,5.53-4.33,6.12-7.73.47-3.15-2.66-5.09-5.15-6.15C1326.59,78.74,1321.69,77.84,1317.13,79.05Z"/><path class="cls-5" d="M1347,59.83c-4.14,2.62-4.73,7.86-5.71,12.23-1,6.18-1.19,12.63.48,18.71,1.46,4.49,4.36,9,9,10.68,6.45,3,15.2.06,18.07-6.56,1.17-2.47.9-5.26,1.42-7.87a1.68,1.68,0,0,1,1.63-1.32c3-.42,6.22-.39,8.86-2.09a14.08,14.08,0,0,0,5.45-16.81c-1.61-4.57-5.79-7.73-10.23-9.28s-9.12-1.46-13.71-1.21A36.64,36.64,0,0,0,1347,59.83Z"/></g></g></g></svg>