<svg xmlns="http://www.w3.org/2000/svg" xmlns:xlink="http://www.w3.org/1999/xlink" viewBox="0 0 452.32 181"><defs><style>.cls-1{fill:none;}.cls-2{fill:#f4dbb3;}.cls-3{clip-path:url(#clip-path);}.cls-4{fill:#4b3f4e;}.cls-5{fill:#5d5360;}.cls-17,.cls-6{fill:#fff;}.cls-7{clip-path:url(#clip-path-2);}.cls-8{fill:#bb8d78;}.cls-9{fill:#fe8086;}.cls-10{fill:#e5646e;}.cls-11{fill:#dab898;}.cls-12{clip-path:url(#clip-path-3);}.cls-13{fill:#814641;}.cls-14{fill:#955a50;}.cls-15{clip-path:url(#clip-path-4);}.cls-16{fill:#eb7859;opacity:0.8;}.cls-17{font-size:45.9px;font-family:Raleway-BoldItalic, Raleway;font-weight:700;font-style:italic;}.cls-18{font-size:21.9px;}.cls-19{letter-spacing:-0.02em;}.cls-20{letter-spacing:-0.04em;}.cls-21{letter-spacing:0em;}.cls-22{letter-spacing:-0.02em;}.cls-23{letter-spacing:-0.03em;}.cls-24{letter-spacing:-0.01em;}.cls-25{letter-spacing:-0.03em;}</style><clipPath id="clip-path"><rect class="cls-1" x="306.11" y="53.7" width="23.29" height="29.89" rx="11.65" transform="translate(635.5 137.28) rotate(-180)"/></clipPath><clipPath id="clip-path-2"><rect class="cls-1" x="377.55" y="53.7" width="23.29" height="29.89" rx="11.65" transform="translate(778.39 137.28) rotate(-180)"/></clipPath><clipPath id="clip-path-3"><path class="cls-1" d="M313.92,17.47a8.53,8.53,0,0,0-4.12-14c-8.34-2.2-19.43-2.75-28.55,5.06-15.63,13.37-20.86,35-21.63,38.51a7.81,7.81,0,0,0-.15,1c-.55,5.41-5.27,57.79,16.81,56.7,21-1,19.27-31.1,18.72-37.15a8.71,8.71,0,0,1,.1-2.22l2.65-15.15a64.36,64.36,0,0,1,16.17-32.67Z"/></clipPath><clipPath id="clip-path-4"><path class="cls-1" d="M394.16,15.46a8.53,8.53,0,0,1,4.11-14c8.34-2.19,19.43-2.74,28.56,5.07,15.62,13.36,20.85,35,21.62,38.51a7.36,7.36,0,0,1,.15.94c.55,5.41,5.28,57.79-16.81,56.71-21-1-19.27-31.1-18.72-37.15a8.69,8.69,0,0,0-.1-2.22l-2.64-15.16a64.45,64.45,0,0,0-16.17-32.66Z"/></clipPath></defs><title>Asset 1</title><g id="Layer_2" data-name="Layer 2"><g id="Images_fonts_colours" data-name="Images / fonts / colours"><path class="cls-2" d="M307.64,135.67s-28.59-24.37-29.47-45.53S290.86,5.2,311.32,4.66c0,0,6.65,2.14,10.92,1.47S334,.94,354.48,1.06s21.94,5.35,30,4.57,12.58-5.8,18.31-1,32.11,73.06,19.85,99-26.31,32.61-26.31,32.61Z"/><path class="cls-2" d="M307.64,135.67s-28.59-24.37-29.47-45.53S290.86,5.2,311.32,4.66c0,0,6.65,2.14,10.92,1.47S334,.94,354.48,1.06s21.94,5.35,30,4.57,12.58-5.8,18.31-1,32.11,73.06,19.85,99-26.31,32.61-26.31,32.61Z"/><path class="cls-2" d="M307.64,135.67s-28.59-24.37-29.47-45.53S290.86,5.2,311.32,4.66c0,0,6.65,2.14,10.92,1.47S334,.94,354.48,1.06s21.94,5.35,30,4.57,12.58-5.8,18.31-1,32.11,73.06,19.85,99-26.31,32.61-26.31,32.61Z"/><g class="cls-3"><rect class="cls-4" x="306.11" y="53.7" width="23.29" height="29.89" rx="11.65" transform="translate(635.5 137.28) rotate(-180)"/><rect class="cls-5" x="306.11" y="49.22" width="13.45" height="27.64" rx="6.72" transform="translate(625.66 126.07) rotate(-180)"/><circle class="cls-6" cx="317.75" cy="62.04" r="5.16"/></g><g class="cls-7"><rect class="cls-4" x="377.55" y="53.7" width="23.29" height="29.89" rx="11.65" transform="translate(778.39 137.28) rotate(-180)"/><rect class="cls-5" x="377.55" y="49.22" width="13.45" height="27.64" rx="6.72" transform="translate(768.55 126.07) rotate(-180)"/><circle class="cls-6" cx="389.36" cy="61.43" r="5.16"/></g><path class="cls-8" d="M315.7,139s4.19,23.07,35.93,22.56,33.12-14.29,36.74-22.14S326.77,125.29,315.7,139Z"/><path class="cls-9" d="M334.39,138.28h33.08a0,0,0,0,1,0,0v26.18A16.54,16.54,0,0,1,350.93,181h0a16.54,16.54,0,0,1-16.54-16.54V138.28A0,0,0,0,1,334.39,138.28Z"/><path class="cls-10" d="M334.39,152.36v-6.82a34.39,34.39,0,0,0,12.92-5.2,6.46,6.46,0,0,1,7.24,0,34.16,34.16,0,0,0,12.92,5.2c0,2.27,0,4.55,0,6.82a42.8,42.8,0,0,1-13.3-4.46c0,1.78,0,3.17,0,4.56A3.45,3.45,0,0,1,351,156c-1.76.06-3.19-1.56-3.32-3.58-.08-1.3.68-3.06-.42-3.78s-2.23.8-3.4,1.23A70.24,70.24,0,0,1,334.39,152.36Z"/><path class="cls-11" d="M389,106.16c-6.89-7.42-14.35-9.09-14.35-9.09l-22.51-2.45L329.6,97.07s-7.46,1.67-14.36,9.09-12.24,14-8.4,27.3,23,13.37,30.27,12.41,10.54-5.84,15-5.84,7.72,4.88,15,5.84,26.44.85,30.28-12.41S395.87,113.58,389,106.16Z"/><path class="cls-11" d="M389,106.16c-6.89-7.42-14.35-9.09-14.35-9.09l-22.51-2.45L329.6,97.07s-7.46,1.67-14.36,9.09-12.24,14-8.4,27.3,23,13.37,30.27,12.41,10.54-5.84,15-5.84,7.72,4.88,15,5.84,26.44.85,30.28-12.41S395.87,113.58,389,106.16Z"/><path class="cls-4" d="M333.19,110.85c0,6.08,5.05,11.26,12.16,13.31,2.1.61,4.38,2.38,6.76,2.38,3.09,0,6-2,8.6-3,6.12-2.36,10.31-7.16,10.31-12.7,0-7.87-8.47-14.25-18.91-14.25S333.19,103,333.19,110.85Z"/><path class="cls-5" d="M333.19,110.85c0,5.25,3.77,9.84,9.38,12.31a20.32,20.32,0,0,0,2.78,1c2.1.61,10.62-6.65,12.36-8.84,1.92-2.42,8.86-15.1,2.42-17.38a24.13,24.13,0,0,0-8-1.34C341.66,96.6,333.19,103,333.19,110.85Z"/><g class="cls-12"><path class="cls-13" d="M313,4.94s-10.15-8.61-22.57,3.72c-15.93,15.82-21.73,39-21.73,39s-15.09,60.87,4,52.32C294,90.44,287.87,54.71,294,39.1Z"/><path class="cls-14" d="M306.49,3.07s-14-4.63-23.33,5.59c-15.16,16.56-21.73,39-21.73,39s-15.09,60.87,4,52.32c21.27-9.55,6.51-53,19.71-67.63Z"/></g><g class="cls-15"><path class="cls-13" d="M395.05,2.92s10.15-8.61,22.57,3.73c15.93,15.82,21.73,39,21.73,39s15.09,60.87-4,52.32C414.11,88.42,420.2,52.7,414.1,37.09Z"/><path class="cls-14" d="M401.58,1.06s14-4.64,23.33,5.59c15.16,16.56,21.74,39,21.74,39s15.09,60.87-4,52.32c-21.27-9.55-6.51-53-19.71-67.63Z"/></g><path class="cls-16" d="M253,138s-28-34.34-28-43l.85-30.48A46.52,46.52,0,0,0,179.29,18H46.52A46.52,46.52,0,0,0,0,64.52v42.89a46.52,46.52,0,0,0,46.52,46.52H179.29c9.41,0,30.35-17.12,37.67-21.93Z"/><text class="cls-17" transform="translate(25.05 64.48)"><tspan xml:space="preserve">    50% </tspan><tspan class="cls-18"><tspan x="0" y="26.28">OF</tspan><tspan class="cls-19" x="28.15" y="26.28">F</tspan><tspan x="39.89" y="26.28" xml:space="preserve"> HOME</tspan><tspan class="cls-20" x="107.59" y="26.28"> </tspan><tspan class="cls-21" x="111.95" y="26.28">VISITS </tspan><tspan x="0" y="52.57" xml:space="preserve">      </tspan><tspan class="cls-22" x="31.01" y="52.57">F</tspan><tspan x="42.8" y="52.57">OR NE</tspan><tspan class="cls-23" x="106.71" y="52.57">W</tspan><tspan x="0" y="78.85" xml:space="preserve">   CU</tspan><tspan class="cls-24" x="45.69" y="78.85">S</tspan><tspan class="cls-25" x="58.33" y="78.85">T</tspan><tspan x="70.55" y="78.85">OMERS</tspan></tspan></text></g></g></svg>