<svg xmlns="http://www.w3.org/2000/svg" viewBox="0 0 104.12 104.07"><defs><style>.cls-1{fill:#eb7859;stroke:#b24d39;stroke-miterlimit:10;}.cls-2,.cls-3{fill:#fff;}.cls-3{font-size:13.49px;font-family:Montserrat-SemiBold, Montserrat;font-weight:600;}.cls-4{letter-spacing:0em;}</style></defs><title>Asset 15</title><g id="Layer_2" data-name="Layer 2"><g id="High_Fidelity" data-name="High Fidelity"><path class="cls-1" d="M46.8.75A51.37,51.37,0,0,1,75.23,6,51.11,51.11,0,0,1,103.14,45.1,51.53,51.53,0,1,1,46.8.75"/><path class="cls-2" d="M37.34,11.12A8.73,8.73,0,0,1,45.18,13c2.65,2.47,3.4,6.31,3.42,9.8,0,2.94-.08,6.25-2.05,8.63-1.18,1.51-3.34,1.28-5,.83A20.57,20.57,0,0,1,32.88,25c-1.37-2.13-2.42-4.75-1.7-7.29A8.62,8.62,0,0,1,37.34,11.12Z"/><path class="cls-2" d="M61.56,11.26a10,10,0,0,1,5-.1c3.69.94,6.19,4.7,6.26,8.41-.25,4-3.06,7.21-5.9,9.78-2.33,1.89-5.19,3.83-8.35,3.1-1.65-.75-2.47-2.54-2.94-4.19a24.42,24.42,0,0,1-.07-9.41,12.87,12.87,0,0,1,2-4.73A9.14,9.14,0,0,1,61.56,11.26Z"/><path class="cls-2" d="M21,31a7.77,7.77,0,0,1,8,1.41c2.42,2.38,4.64,5.2,5.39,8.58.27,1.27.36,2.84-.67,3.81-1.54,1.6-4,1.56-6,1.46a15.72,15.72,0,0,1-8.53-3A7.35,7.35,0,0,1,21,31Z"/><path class="cls-2" d="M76.62,31.17a7.55,7.55,0,0,1,6-.14c4,1.34,5.71,6.69,3.61,10.26-1.61,3.06-5.23,4.1-8.37,4.8-2.44.34-5.25.64-7.39-.86-1.92-1.43-1.29-4.13-.53-6C71.41,36.05,73.54,33,76.62,31.17Z"/><path class="cls-2" d="M50.41,36.87c3.6-.82,6.71,1.66,9.57,3.46a33.88,33.88,0,0,1,9.73,10.22c1.62,3.17,2.46,7.09.94,10.46-1.82,5.06-8.06,8.15-13.13,6.16-1.94-.69-3.28-2.32-5-3.44A1.27,1.27,0,0,0,51,63.9c-1.82,1.38-3.53,3.11-5.84,3.61a10.59,10.59,0,0,1-11.87-6c-1.58-3.3-1-7.21.49-10.4a28,28,0,0,1,6.65-8A27.49,27.49,0,0,1,50.41,36.87Z"/><text class="cls-3" transform="translate(34.09 83.91)">Se<tspan class="cls-4" x="16.88" y="0">n</tspan><tspan x="26.19" y="0">d</tspan></text></g></g></svg>