<svg xmlns="http://www.w3.org/2000/svg" viewBox="0 0 225.94 127.18"><defs><style>.cls-1{fill:#342984;}</style></defs><title>codefill</title><g id="Layer_2" data-name="Layer 2"><g id="Layer_1-2" data-name="Layer 1"><g id="Layer_1-2-2" data-name="Layer 1-2"><path class="cls-1" d="M56.51,124.25,2.94,70.66a10,10,0,0,1,0-14.14l0,0L56.51,2.93a10,10,0,0,1,14.14,0h0a10,10,0,0,1,0,14.14L31.22,56.5a10,10,0,0,0,0,14.14l39.45,39.45a10,10,0,0,1,0,14.14h0a10,10,0,0,1-14.14,0Z"/><path class="cls-1" d="M169.42,2.93,223,56.5a10,10,0,0,1,0,14.14l-53.59,53.59a10,10,0,0,1-14.14,0h0a10,10,0,0,1,0-14.14l39.45-39.45a10,10,0,0,0,0-14.14L155.28,17.07a10,10,0,0,1,0-14.14h0A10,10,0,0,1,169.42,2.93Z"/><path class="cls-1" d="M78.08,103.64l47.53-89.47A10,10,0,0,1,139.13,10h0a10,10,0,0,1,4.14,13.52L95.74,113a10,10,0,0,1-13.52,4.14h0A10,10,0,0,1,78.08,103.64Z"/></g></g></g></svg>