<svg xmlns="http://www.w3.org/2000/svg" viewBox="0 0 232.93 134.18"><defs><style>.cls-1{fill:none;stroke:#342984;stroke-miterlimit:10;stroke-width:7px;}</style></defs><title>Asset 8</title><g id="Layer_2" data-name="Layer 2"><g id="Layer_1-2" data-name="Layer 1"><path class="cls-1" d="M60,127.75,6.43,74.16A10,10,0,0,1,6.43,60L60,6.43a10,10,0,0,1,14.14,0h0a10,10,0,0,1,0,14.14L34.71,60a10,10,0,0,0,0,14.14l39.45,39.45a10,10,0,0,1,0,14.14h0A10,10,0,0,1,60,127.75Z"/><path class="cls-1" d="M172.91,6.43,226.5,60a10,10,0,0,1,0,14.14l-53.59,53.59a10,10,0,0,1-14.14,0h0a10,10,0,0,1,0-14.14l39.45-39.45a10,10,0,0,0,0-14.14L158.77,20.57a10,10,0,0,1,0-14.14h0A10,10,0,0,1,172.91,6.43Z"/><rect class="cls-1" x="53.5" y="57.09" width="121.32" height="20" rx="10" transform="translate(1.36 136.44) rotate(-62.02)"/></g></g></svg>