<svg xmlns="http://www.w3.org/2000/svg" viewBox="0 0 151.62 157.09"><defs><style>.cls-1{fill:#474da0;}</style></defs><title>Asset 17</title><g id="Layer_2" data-name="Layer 2"><g id="Layer_1-2" data-name="Layer 1"><path class="cls-1" d="M66.13,4.17,37.61,34C40.61,37,50,47.12,55.06,46.9c4.62-.2,8.11,4.78,8.43,9.9.09,1.44-.88,3.23.35,4.28,4.54,3.89,21,26.41,32,35.64,1-.63.81-2.1.9-3.3a41.62,41.62,0,0,0,.08-6.51c-.62-8,1.11-16-1-23.95a35.46,35.46,0,0,1-2.31-3,10.25,10.25,0,0,1,1.57-13.1,9.37,9.37,0,0,1,12.43-1c5.68,4,5.65,11.09-.07,17.55a11.25,11.25,0,0,0-1,5.34c.09,10.87-.15,21.73.13,32.59.39.34.76.68,1.12,1a10.5,10.5,0,0,1,4.19,10,.43.43,0,0,1,0,.12c0,.11,0,.21,0,.32l0,0a10.24,10.24,0,0,1-11,8.59c-5.47-.62-9.41-5.61-8.79-11.82a5.1,5.1,0,0,0-1.58-4.83c-2.75-2.62-26.8-31-29.5-33.7-1.75-.11-2.16.85-2.29,2a66.24,66.24,0,0,0-.11,9c.43,7.68-1.09,15.45.94,23.06a35.46,35.46,0,0,1,2.31,3,10.25,10.25,0,0,1-1.57,13.1,9.37,9.37,0,0,1-12.43,1c-5.68-4-5.65-11.09.07-17.56a11.2,11.2,0,0,0,1-5.34c-.09-10.86.15-21.72-.13-32.58-3.4-3-5.86-6.42-5.27-11.48.25-2.14-.88-3.89-2.32-5.39-3-3.16-6.47-6.59-9.35-9.88L4.14,68.9a14.92,14.92,0,0,0,0,20.63L64,152a16.52,16.52,0,0,0,23.86,0l59.56-62.2a15.29,15.29,0,0,0,0-21.15L85.64,4.17A13.5,13.5,0,0,0,66.13,4.17Z"/></g></g></svg>