<svg xmlns="http://www.w3.org/2000/svg" viewBox="0 0 874.09 717.91"><defs><style>.cls-1{fill:#fff;}.cls-2{fill:#ccc;}</style></defs><title>Asset 1</title><g id="Layer_2" data-name="Layer 2"><g id="Layer_1-2" data-name="Layer 1"><path d="M510.13,603.48v83.88c6.23,0,12.17-.16,18.1,0,8,.27,13.79,5.45,14.87,12.87,1.12,7.74-2.89,14.57-10.1,16.86a19.73,19.73,0,0,1-5.89.75q-90,0-180,0c-9.75,0-16.27-6-16.41-15s6.55-15.45,16.45-15.56c5.45-.06,10.91,0,16.71,0V603.48H356.7q-167.49,0-335-.13A31.07,31.07,0,0,1,8,600C2.7,597.31.15,592,0,585.9c0-2,0-4,0-6v-559C0,6.86,6.76,0,20.72,0H853.17c14.06,0,20.88,6.81,20.88,20.77q0,280.72,0,561.47c0,5.67-.68,10.91-4.77,15.26-4.32,4.61-9.73,6-15.82,6q-70-.06-140,0H510.13ZM30.77,496.05H843.18V30.9H30.77Zm.07,30.86c-.11,2.28-.26,3.9-.27,5.53,0,11.66.2,23.33-.11,35-.12,4.47,1.32,6.15,5.66,5.52a21.29,21.29,0,0,1,3,0H835a35.38,35.38,0,0,1,4,0c3.52.38,4.58-1.17,4.53-4.6-.16-11.66,0-23.33-.06-35,0-6.44,0-6.45-6.55-6.45H30.84ZM395,687H479V603.9H395Z"/><path class="cls-1" d="M30.84,526.91h806.1c6.54,0,6.55,0,6.55,6.45,0,11.66-.1,23.33.06,35,.05,3.43-1,5-4.53,4.6a35.38,35.38,0,0,0-4,0H39.11a21.29,21.29,0,0,0-3,0c-4.34.63-5.78-1.05-5.66-5.52.31-11.66.09-23.33.11-35C30.58,530.81,30.73,529.19,30.84,526.91Z"/><path class="cls-1" d="M395,687V603.9H479V687Z"/><rect class="cls-2" x="31.03" y="31.06" width="812" height="465"/></g></g></svg>