<svg xmlns="http://www.w3.org/2000/svg" viewBox="0 0 457.03 468.16"><defs><style>.cls-1{fill:#342984;}.cls-2{fill:none;stroke:#1d1d1b;stroke-miterlimit:10;}.cls-3{font-size:46px;}.cls-3,.cls-6{fill:#1d1d1b;font-family:MyriadPro-Regular, Myriad Pro;}.cls-4{letter-spacing:0em;}.cls-5{letter-spacing:0em;}.cls-6{font-size:16px;}.cls-7{letter-spacing:-0.06em;}.cls-8{letter-spacing:0.01em;}.cls-9{letter-spacing:0em;}.cls-10{letter-spacing:-0.01em;}.cls-11{letter-spacing:-0.01em;}.cls-12{letter-spacing:-0.01em;}.cls-13{letter-spacing:0em;}.cls-14{letter-spacing:-0.01em;}.cls-15{letter-spacing:0em;}.cls-16{letter-spacing:0em;}.cls-17{letter-spacing:0em;}.cls-18{letter-spacing:-0.01em;}.cls-19{letter-spacing:-0.01em;}.cls-20{letter-spacing:0em;}.cls-21{letter-spacing:0em;}.cls-22{letter-spacing:-0.01em;}.cls-23{letter-spacing:0em;}.cls-24{letter-spacing:-0.01em;}.cls-25{letter-spacing:0.01em;}.cls-26{letter-spacing:-0.01em;}.cls-27{letter-spacing:0.02em;}.cls-28{letter-spacing:-0.01em;}.cls-29{letter-spacing:0.01em;}.cls-30{letter-spacing:0.01em;}.cls-31{letter-spacing:0.01em;}.cls-32{letter-spacing:0em;}.cls-33{letter-spacing:0.03em;}.cls-34{letter-spacing:-0.01em;}.cls-35{letter-spacing:-0.01em;}.cls-36{letter-spacing:0.01em;}.cls-37{letter-spacing:-0.04em;}.cls-38{letter-spacing:-0.03em;}.cls-39{letter-spacing:0em;}.cls-40{letter-spacing:-0.01em;}.cls-41{letter-spacing:0.02em;}</style></defs><title>Asset 1</title><g id="Layer_2" data-name="Layer 2"><g id="Layer_1-2" data-name="Layer 1"><path class="cls-1" d="M32,231.58a16,16,0,0,0-8.49-14.12V70.71a16,16,0,1,0-15.32-.17V217.62a16,16,0,0,0,0,27.92V397.62a16,16,0,1,0,15.32-.16V245.71A16,16,0,0,0,32,231.58Z"/><polygon class="cls-2" points="456.53 111.2 157.31 111.2 65.34 55.85 157.31 0.5 456.53 0.5 456.53 111.2"/><polygon class="cls-2" points="456.53 286.43 157.31 286.43 65.34 231.08 157.31 175.73 456.53 175.73 456.53 286.43"/><polygon class="cls-2" points="456.53 467.66 157.31 467.66 65.34 412.31 157.31 356.96 456.53 356.96 456.53 467.66"/><text class="cls-3" transform="translate(150.15 43.85)"><tspan class="cls-4">E</tspan><tspan x="22.45" y="0">duc</tspan><tspan class="cls-5" x="94.35" y="0">a</tspan><tspan x="116.33" y="0">tion</tspan></text><text class="cls-6" transform="translate(152.87 69.08)">I studied I<tspan class="cls-7" x="64.69" y="0">T</tspan><tspan x="71.68" y="0">, </tspan><tspan class="cls-8" x="78.38" y="0">M</tspan><tspan class="cls-9" x="91.34" y="0">a</tspan><tspan x="98.99" y="0">th</tspan><tspan class="cls-10" x="113.17" y="0">s</tspan><tspan x="119.33" y="0">, and Business in </tspan><tspan class="cls-10" x="231.58" y="0">C</tspan><tspan x="240.68" y="0">olleg</tspan><tspan class="cls-11" x="273.98" y="0">e</tspan><tspan x="281.8" y="0">.</tspan><tspan class="cls-12" x="0" y="19.2">T</tspan><tspan x="7.84" y="19.2">his </tspan><tspan class="cls-13" x="30.19" y="19.2">w</tspan><tspan x="41.9" y="19.2">as the first time I </tspan><tspan class="cls-14" x="154.56" y="19.2">t</tspan><tspan class="cls-15" x="159.76" y="19.2">ook a se</tspan><tspan class="cls-16" x="213.68" y="19.2">r</tspan><tspan x="218.97" y="19.2">ious i</tspan><tspan class="cls-13" x="253.79" y="19.2">n</tspan><tspan class="cls-14" x="262.6" y="19.2">t</tspan><tspan class="cls-17" x="267.8" y="19.2">e</tspan><tspan class="cls-18" x="275.82" y="19.2">r</tspan><tspan class="cls-17" x="280.89" y="19.2">est</tspan><tspan class="cls-14" x="0" y="38.4">t</tspan><tspan class="cls-12" x="5.2" y="38.4">o</tspan><tspan class="cls-9" x="13.87" y="38.4">w</tspan><tspan x="25.58" y="38.4">a</tspan><tspan class="cls-19" x="33.3" y="38.4">r</tspan><tspan x="38.37" y="38.4">ds IT and </tspan><tspan class="cls-14" x="101.29" y="38.4">c</tspan><tspan class="cls-15" x="108.37" y="38.4">omputing!</tspan></text><text class="cls-3" transform="translate(151.55 217.66)"><tspan class="cls-20">A</tspan><tspan class="cls-21" x="28.01" y="0">pp</tspan><tspan class="cls-22" x="80.36" y="0">r</tspan><tspan class="cls-23" x="94.94" y="0">e</tspan><tspan class="cls-5" x="117.99" y="0">n</tspan><tspan x="143.33" y="0">ti</tspan><tspan class="cls-24" x="169.32" y="0">c</tspan><tspan class="cls-23" x="189.66" y="0">e</tspan></text><text class="cls-6" transform="translate(152.87 242.89)">I <tspan class="cls-13" x="7.22" y="0">w</tspan><tspan x="18.93" y="0">as a </tspan><tspan class="cls-25" x="47.47" y="0">M</tspan><tspan x="60.43" y="0">a</tspan><tspan class="cls-16" x="68.14" y="0">r</tspan><tspan x="73.44" y="0">keting app</tspan><tspan class="cls-18" x="145.13" y="0">r</tspan><tspan x="150.21" y="0">e</tspan><tspan class="cls-9" x="158.22" y="0">n</tspan><tspan x="167.04" y="0">ti</tspan><tspan class="cls-26" x="176.08" y="0">c</tspan><tspan class="cls-17" x="183.15" y="0">e th</tspan><tspan class="cls-9" x="208.73" y="0">a</tspan><tspan class="cls-15" x="216.38" y="0">t unde</tspan><tspan class="cls-27" x="259.8" y="0">r</tspan><tspan class="cls-26" x="265.42" y="0">t</tspan><tspan x="270.62" y="0">ook</tspan><tspan x="0" y="19.2">ma</tspan><tspan class="cls-28" x="21.06" y="19.2">n</tspan><tspan class="cls-15" x="29.73" y="19.2">y media job</tspan><tspan class="cls-10" x="107.66" y="19.2">s</tspan><tspan x="113.82" y="19.2">, using so</tspan><tspan class="cls-29" x="175.76" y="19.2">f</tspan><tspan class="cls-30" x="180.61" y="19.2">t</tspan><tspan class="cls-13" x="186.04" y="19.2">w</tspan><tspan x="197.76" y="19.2">a</tspan><tspan class="cls-19" x="205.47" y="19.2">r</tspan><tspan x="210.54" y="19.2">e such as </tspan><tspan class="cls-31" x="0" y="38.4">I</tspan><tspan x="3.98" y="38.4">llust</tspan><tspan class="cls-32" x="31.98" y="38.4">r</tspan><tspan class="cls-13" x="37.14" y="38.4">a</tspan><tspan class="cls-14" x="44.78" y="38.4">t</tspan><tspan x="49.98" y="38.4">or and </tspan><tspan class="cls-32" x="96.4" y="38.4">P</tspan><tspan x="104.83" y="38.4">ho</tspan><tspan class="cls-14" x="122.49" y="38.4">t</tspan><tspan x="127.69" y="38.4">oshop e</tspan><tspan class="cls-18" x="180.99" y="38.4">v</tspan><tspan x="188.53" y="38.4">e</tspan><tspan class="cls-33" x="196.54" y="38.4">r</tspan><tspan class="cls-15" x="202.17" y="38.4">y d</tspan><tspan class="cls-34" x="222.13" y="38.4">a</tspan><tspan x="229.71" y="38.4">y!</tspan></text><text class="cls-3" transform="translate(151.16 393.85)">Uni<tspan class="cls-35" x="66.05" y="0">v</tspan><tspan x="87.72" y="0">ersi</tspan><tspan class="cls-36" x="154.79" y="0">t</tspan><tspan x="170.43" y="0">y</tspan></text><text class="cls-6" transform="translate(152.87 419.08)">I h<tspan class="cls-34" x="16.1" y="0">a</tspan><tspan class="cls-18" x="23.68" y="0">v</tspan><tspan x="31.22" y="0">e studied</tspan><tspan class="cls-37" x="92.88" y="0"> </tspan><tspan class="cls-38" x="95.69" y="0">W</tspan><tspan x="108.7" y="0">eb </tspan><tspan class="cls-16" x="129.21" y="0">D</tspan><tspan x="139.93" y="0">esi</tspan><tspan class="cls-14" x="158.03" y="0">g</tspan><tspan class="cls-17" x="166.88" y="0">n and </tspan><tspan class="cls-39" x="208.16" y="0">D</tspan><tspan x="218.88" y="0">e</tspan><tspan class="cls-18" x="226.89" y="0">v</tspan><tspan class="cls-17" x="234.43" y="0">elopme</tspan><tspan class="cls-13" x="285.47" y="0">n</tspan><tspan x="294.28" y="0">t</tspan><tspan class="cls-9" x="0" y="19.2">a</tspan><tspan class="cls-15" x="7.65" y="19.2">t Uni</tspan><tspan class="cls-19" x="39.31" y="19.2">v</tspan><tspan x="46.85" y="19.2">ersi</tspan><tspan class="cls-30" x="70.17" y="19.2">t</tspan><tspan x="75.61" y="19.2">y and fu</tspan><tspan class="cls-27" x="129.04" y="19.2">r</tspan><tspan x="134.65" y="19.2">the</tspan><tspan class="cls-18" x="156.84" y="19.2">r</tspan><tspan x="161.92" y="19.2">ed </tspan><tspan class="cls-40" x="182.35" y="19.2">m</tspan><tspan x="195.48" y="19.2">y </tspan><tspan class="cls-41" x="206.41" y="19.2">k</tspan><tspan x="214.19" y="19.2">n</tspan><tspan class="cls-12" x="223.07" y="19.2">o</tspan><tspan x="231.74" y="19.2">wledge</tspan><tspan x="0" y="38.4">and passion </tspan><tspan class="cls-40" x="83.29" y="38.4">f</tspan><tspan x="87.76" y="38.4">or de</tspan><tspan class="cls-19" x="122.21" y="38.4">v</tspan><tspan x="129.74" y="38.4">elopme</tspan><tspan class="cls-9" x="180.78" y="38.4">n</tspan><tspan x="189.6" y="38.4">t!</tspan></text></g></g></svg>